<svg xmlns="http://www.w3.org/2000/svg" fill="none" viewBox="0 0 38 9"><path fill="#253B80" d="M4.54.022c.973 0 1.706.269 2.12.777.376.463.5 1.124.37 1.966-.288 1.923-1.393 2.894-3.308 2.894h-.92a.41.41 0 0 0-.4.358l-.317 2.106a.41.41 0 0 1-.398.358H.299a.25.25 0 0 1-.24-.293L1.235.379a.41.41 0 0 1 .4-.357zm-1.282 1.69c-.119 0-.22.09-.24.213L2.71 3.966h.44c.77 0 1.567 0 1.726-1.093.058-.383.011-.661-.141-.848-.256-.314-.752-.314-1.277-.314zm6.539.989c.67 0 1.343.153 1.645.612l.096.147.063-.407a.25.25 0 0 1 .24-.215h1.39c.15 0 .262.14.239.293l-.752 4.992a.41.41 0 0 1-.4.358h-1.253c-.149 0-.263-.14-.24-.294l.063-.406c-.01.013-.697.835-1.927.835-.722 0-1.329-.218-1.753-.742-.462-.57-.651-1.386-.518-2.24C6.946 3.922 8.259 2.7 9.797 2.7Zm.33 1.546c-.793 0-1.435.578-1.56 1.403-.066.406.012.77.217 1.026.208.257.531.392.935.392.805 0 1.437-.559 1.571-1.392.06-.403-.023-.77-.235-1.031s-.534-.398-.929-.398Zm10.516-1.408h-1.399a.4.4 0 0 0-.334.186l-1.93 2.977-.817-2.861a.41.41 0 0 0-.388-.302H14.4c-.167 0-.283.171-.23.336l1.541 4.737-1.448 2.142c-.114.169 0 .4.197.4h1.397a.4.4 0 0 0 .332-.18l4.653-7.036c.111-.169-.003-.399-.199-.399"/><path fill="#179BD7" d="M25.275.022c.973 0 1.706.269 2.118.777.376.463.502 1.124.371 1.966-.289 1.923-1.393 2.894-3.308 2.894h-.92a.41.41 0 0 0-.399.358l-.334 2.214a.29.29 0 0 1-.279.25h-1.491c-.148 0-.263-.14-.24-.293L21.97.379a.41.41 0 0 1 .398-.357zm-1.283 1.69c-.12 0-.22.09-.24.213l-.308 2.041h.439c.77 0 1.568 0 1.726-1.093.058-.383.012-.661-.14-.848-.256-.314-.752-.314-1.277-.314zm6.54.989c.671 0 1.343.153 1.644.612l.098.147.061-.407a.246.246 0 0 1 .24-.215h1.39c.15 0 .263.14.24.293l-.753 4.992a.41.41 0 0 1-.398.358H31.8c-.149 0-.262-.14-.24-.294l.062-.406a2.62 2.62 0 0 1-1.927.835c-.721 0-1.328-.218-1.752-.742-.463-.57-.65-1.386-.518-2.24.256-1.712 1.57-2.933 3.107-2.933m.33 1.546c-.793 0-1.435.578-1.561 1.403-.065.406.013.77.219 1.026.207.257.531.392.934.392.805 0 1.437-.559 1.57-1.392.062-.403-.022-.77-.235-1.031-.211-.26-.532-.398-.928-.398ZM35.606.236l-1.193 7.952c-.023.154.09.293.239.293h1.2a.41.41 0 0 0 .398-.357L37.427.315c.023-.154-.09-.293-.239-.293h-1.343a.25.25 0 0 0-.24.214Z"/></svg>