<svg xmlns="http://www.w3.org/2000/svg"><symbol id="alertCircle" viewBox="0 0 14 14"><g clip-path="url(#alertCircle-a)"><circle cx="7" cy="7" r="5.5" vector-effect="non-scaling-stroke"/><path stroke-linecap="round" stroke-linejoin="round" d="M7 3.75v3.5" vector-effect="non-scaling-stroke"/><path stroke-linejoin="round" d="M6.99 9.74h.02v.02h-.02z" vector-effect="non-scaling-stroke"/></g><defs><clipPath id="alertCircle-a"><path fill="#fff" d="M0 0h14v14H0z" vector-effect="non-scaling-stroke"/></clipPath></defs></symbol><symbol id="alertTriangle" viewBox="0 0 14 14"><path stroke-linejoin="round" d="M6.99 9.99h.02v.02h-.02z" vector-effect="non-scaling-stroke"/><path stroke-linecap="round" stroke-linejoin="round" d="M7 4.75V7.5" vector-effect="non-scaling-stroke"/><path stroke-linejoin="round" d="M5.6 2.718c-.176.357-.988 1.906-1.81 3.475l-.013.025a371 371 0 0 0-1.813 3.48c-.267.539-.32 1.201.046 1.756s1.014.796 1.717.796h6.546c.703 0 1.351-.242 1.717-.796.365-.555.313-1.217.046-1.756-.186-.375-1-1.93-1.81-3.473l-.016-.032A382 382 0 0 1 8.4 2.718c-.266-.535-.756-.968-1.4-.968s-1.134.433-1.4.968" vector-effect="non-scaling-stroke"/></symbol><symbol id="alertTriangleFilled" viewBox="0 0 14 14"><path stroke="currentColor" d="M5.658 2.683c.553-1.105 2.13-1.105 2.684 0l3.753 7.508A1.25 1.25 0 0 1 10.978 12H3.023a1.25 1.25 0 0 1-1.118-1.809z" vector-effect="non-scaling-stroke"/><path fill="currentColor" fill-rule="evenodd" d="M8.342 2.684c-.553-1.106-2.13-1.106-2.684 0L1.905 10.19A1.25 1.25 0 0 0 3.023 12h7.954a1.25 1.25 0 0 0 1.119-1.81zM6.2 9.85a.75.75 0 0 1 .75-.75h.1a.75.75 0 0 1 .75.75v.1a.75.75 0 0 1-.75.75h-.1a.75.75 0 0 1-.75-.75zm1.55-5.1a.75.75 0 1 0-1.5 0V7.5a.75.75 0 0 0 1.5 0z" clip-rule="evenodd" vector-effect="non-scaling-stroke"/></symbol><symbol id="arrowDown" viewBox="0 0 14 14"><path stroke-linecap="round" stroke-linejoin="round" d="M7 1.5v11m0 0 4.75-3.826M7 12.5 2.25 8.674" vector-effect="non-scaling-stroke"/></symbol><symbol id="arrowLeft" viewBox="0 0 14 14"><path stroke-linecap="round" stroke-linejoin="round" d="M12.5 7h-11m0 0 3.826-4.75M1.5 7l3.826 4.75" vector-effect="non-scaling-stroke"/></symbol><symbol id="arrowRight" viewBox="0 0 14 14"><path stroke-linecap="round" stroke-linejoin="round" d="M1.5 7h11m0 0-3.826 4.75M12.5 7 8.674 2.25" vector-effect="non-scaling-stroke"/></symbol><symbol id="arrowUp" viewBox="0 0 14 14"><path stroke-linecap="round" stroke-linejoin="round" d="M7 12.5v-11m0 0 4.75 3.826M7 1.5 2.25 5.326" vector-effect="non-scaling-stroke"/></symbol><symbol id="arrowUpRight" viewBox="0 0 14 14"><path stroke-linecap="round" stroke-linejoin="round" d="m2.75 11.25 8.5-8.5m0 0H5.186m6.064 0v6.064" vector-effect="non-scaling-stroke"/></symbol><symbol id="bag" viewBox="0 0 14 14"><path d="m2.007 10.156.387-4.983a1 1 0 0 1 .997-.923h7.218a1 1 0 0 1 .997.923l.387 4.983c.11 1.403-1.16 2.594-2.764 2.594H4.771c-1.605 0-2.873-1.19-2.764-2.594" vector-effect="non-scaling-stroke"/><path d="M5 3.5c0-1.243.895-2.25 2-2.25S9 2.257 9 3.5V5c0 1.243-.895 2.25-2 2.25S5 6.243 5 5z" vector-effect="non-scaling-stroke"/></symbol><symbol id="bullet" viewBox="0 0 14 14"><circle cx="7" cy="7" r="1" stroke="currentColor" vector-effect="non-scaling-stroke"/><path stroke="currentColor" stroke-linejoin="round" d="M6.56 6.56h.88v.88h-.88z" vector-effect="non-scaling-stroke"/></symbol><symbol id="calendar" viewBox="0 0 14 14"><path d="M1.5 5A2.5 2.5 0 0 1 4 2.5h6A2.5 2.5 0 0 1 12.5 5v5a2.5 2.5 0 0 1-2.5 2.5H4A2.5 2.5 0 0 1 1.5 10z" vector-effect="non-scaling-stroke"/><path stroke-linecap="round" d="M5.75 8.25H5m4 0h-.75m-2.5 2.25H5m4 0h-.75" vector-effect="non-scaling-stroke"/><path d="M1.5 6.25h11" vector-effect="non-scaling-stroke"/><path stroke-linecap="round" d="M4.5 1.25v2m5-2v2" vector-effect="non-scaling-stroke"/></symbol><symbol id="camera" viewBox="0 0 14 14"><path d="M1.25 5.699c0-.728.59-1.318 1.318-1.318.497 0 .951-.28 1.176-.722l.285-.564A2 2 0 0 1 5.813 2h2.374A2 2 0 0 1 9.97 3.095l.285.564c.225.443.68.722 1.176.722.728 0 1.318.59 1.318 1.318V10a2 2 0 0 1-2 2h-7.5a2 2 0 0 1-2-2z" vector-effect="non-scaling-stroke"/><circle cx="7" cy="7.5" r="2.5" vector-effect="non-scaling-stroke"/></symbol><symbol id="caretDown" viewBox="0 0 14 14"><path fill="currentColor" d="M11.293 6.207 7.707 9.793a1 1 0 0 1-1.414 0L2.707 6.207c-.63-.63-.184-1.707.707-1.707h7.172c.89 0 1.337 1.077.707 1.707" vector-effect="non-scaling-stroke"/></symbol><symbol id="cart" viewBox="0 0 14 14"><g stroke-linejoin="round" clip-path="url(#cart-a)"><path stroke-linecap="round" d="M1.5 1.5h.956a1 1 0 0 1 .993.887l.067.585m7.8 7.278H5.443a1 1 0 0 1-.989-.855l-.938-6.423M4.27 8.05h5.85a2 2 0 0 0 1.985-1.763l.395-3.315H3.516" vector-effect="non-scaling-stroke"/><circle cx="10" cy="12.5" r=".563" stroke-linecap="round" vector-effect="non-scaling-stroke"/><path d="M9.99 12.49h.02v.02h-.02z" vector-effect="non-scaling-stroke"/><circle cx="6" cy="12.5" r=".563" stroke-linecap="round" vector-effect="non-scaling-stroke"/><path d="M5.99 12.49h.02v.02h-.02z" vector-effect="non-scaling-stroke"/></g><defs><clipPath id="cart-a"><path fill="#fff" d="M0 0h14v14H0z" vector-effect="non-scaling-stroke"/></clipPath></defs></symbol><symbol id="cashDollar" viewBox="0 0 14 14"><path stroke-linecap="round" stroke-linejoin="round" d="M7 11.25v1.5m0-11.5v1.5" vector-effect="non-scaling-stroke"/><path stroke-linecap="round" d="M6.981 7C5.336 7 4.25 6.049 4.25 4.875S5.336 2.75 6.981 2.75c1.06 0 1.99.395 2.519.99M6.805 7c1.645 0 2.731.951 2.731 2.125S8.45 11.25 6.805 11.25c-1.06 0-1.99-.395-2.519-.99" vector-effect="non-scaling-stroke"/></symbol><symbol id="categories" viewBox="0 0 14 14"><g clip-path="url(#categories-a)"><path d="M1.5 7.5A1.5 1.5 0 0 1 3 6h8a1.5 1.5 0 0 1 1.5 1.5V11a1.5 1.5 0 0 1-1.5 1.5H3A1.5 1.5 0 0 1 1.5 11z" vector-effect="non-scaling-stroke"/><path stroke-linecap="round" d="M3.5 3.75h7M5 1.5h4" vector-effect="non-scaling-stroke"/></g><defs><clipPath id="categories-a"><path fill="#fff" d="M0 0h14v14H0z" vector-effect="non-scaling-stroke"/></clipPath></defs></symbol><symbol id="check" viewBox="0 0 14 14"><path stroke-linecap="round" stroke-linejoin="round" d="m1.5 7.097 3.596 3.602c.104.105.156.157.216.175a.25.25 0 0 0 .16-.004c.059-.022.108-.077.206-.188L12.5 3" vector-effect="non-scaling-stroke"/></symbol><symbol id="checkCircle" viewBox="0 0 14 14"><g clip-path="url(#checkCircle-a)"><circle cx="7" cy="7" r="5.5" vector-effect="non-scaling-stroke"/><path stroke-linecap="round" stroke-linejoin="round" d="m4.5 7.17 1.565 1.528c.108.105.162.157.222.175a.25.25 0 0 0 .162-.009c.059-.023.107-.081.203-.196L9.5 5.25" vector-effect="non-scaling-stroke"/></g><defs><clipPath id="checkCircle-a"><path fill="#fff" d="M0 0h14v14H0z" vector-effect="non-scaling-stroke"/></clipPath></defs></symbol><symbol id="checkCircleFilled" viewBox="0 0 14 14"><path fill="currentColor" fill-rule="evenodd" d="M7 0a7 7 0 1 0 0 14A7 7 0 0 0 7 0m2.64 5.69a.7.7 0 0 0-.098-.985.7.7 0 0 0-.985.098L5.9 8.056l-.852-.852a.7.7 0 0 0-.99.99l1.4 1.4a.7.7 0 0 0 1.038-.077L9.639 5.69z" clip-rule="evenodd" vector-effect="non-scaling-stroke"/></symbol><symbol id="chevronDown" viewBox="0 0 14 14"><path stroke-linecap="round" stroke-linejoin="round" d="M12 4.75 7.354 9.396a.5.5 0 0 1-.708 0L2 4.75" vector-effect="non-scaling-stroke"/></symbol><symbol id="chevronLeft" viewBox="0 0 14 14"><path stroke-linecap="round" stroke-linejoin="round" d="M9.25 12 4.604 7.354a.5.5 0 0 1 0-.708L9.25 2" vector-effect="non-scaling-stroke"/></symbol><symbol id="chevronRight" viewBox="0 0 14 14"><path stroke-linecap="round" stroke-linejoin="round" d="m4.75 2 4.646 4.646a.5.5 0 0 1 0 .708L4.75 12" vector-effect="non-scaling-stroke"/></symbol><symbol id="chevronUp" viewBox="0 0 14 14"><path stroke-linecap="round" stroke-linejoin="round" d="m2 9.25 4.646-4.646a.5.5 0 0 1 .708 0L12 9.25" vector-effect="non-scaling-stroke"/></symbol><symbol id="circle" viewBox="0 0 14 14"><g clip-path="url(#circle-a)"><circle cx="7" cy="7" r="5.5" vector-effect="non-scaling-stroke"/></g><defs><clipPath id="circle-a"><path fill="#fff" d="M0 0h14v14H0z" vector-effect="non-scaling-stroke"/></clipPath></defs></symbol><symbol id="clipboard" viewBox="0 0 14 14"><path d="M9.5 3.5h.5A1.5 1.5 0 0 1 11.5 5v5.75a1.5 1.5 0 0 1-1.5 1.5H4a1.5 1.5 0 0 1-1.5-1.5V5A1.5 1.5 0 0 1 4 3.5h.5" vector-effect="non-scaling-stroke"/><path d="M4.5 3c0-.69.56-1.25 1.25-1.25h2.5c.69 0 1.25.56 1.25 1.25v1c0 .69-.56 1.25-1.25 1.25h-2.5C5.06 5.25 4.5 4.69 4.5 4z" vector-effect="non-scaling-stroke"/></symbol><symbol id="clock" viewBox="0 0 14 14"><g clip-path="url(#clock-a)"><circle cx="7" cy="7" r="5.5" vector-effect="non-scaling-stroke"/><path stroke-linecap="round" stroke-linejoin="round" d="M9 9 7 7V3.75" vector-effect="non-scaling-stroke"/></g><defs><clipPath id="clock-a"><path fill="#fff" d="M0 0h14v14H0z" vector-effect="non-scaling-stroke"/></clipPath></defs></symbol><symbol id="creditCard" viewBox="0 0 14 14"><path d="M1 4.75a2 2 0 0 1 2-2h8a2 2 0 0 1 2 2v4.5a2 2 0 0 1-2 2H3a2 2 0 0 1-2-2z" vector-effect="non-scaling-stroke"/><path stroke-linecap="round" stroke-linejoin="round" d="M3.5 8.75h2" vector-effect="non-scaling-stroke"/><path stroke-linecap="square" stroke-linejoin="round" d="M1 6h12" vector-effect="non-scaling-stroke"/></symbol><symbol id="delete" viewBox="0 0 14 14"><path d="M3 4h8v4.5c0 1.4 0 2.1-.273 2.635a2.5 2.5 0 0 1-1.092 1.093C9.1 12.5 8.4 12.5 7 12.5s-2.1 0-2.635-.273a2.5 2.5 0 0 1-1.093-1.092C3 10.6 3 9.9 3 8.5z" vector-effect="non-scaling-stroke"/><path stroke-linecap="round" d="M8.25 6.75v3m-2.5-3v3M2 4h10" vector-effect="non-scaling-stroke"/><path stroke-linejoin="round" d="M9 4v-.75a2 2 0 1 0-4 0V4" vector-effect="non-scaling-stroke"/></symbol><symbol id="delivered" viewBox="0 0 14 14"><g clip-path="url(#delivered-a)"><path d="M11.25 7.38v3.87a1.5 1.5 0 0 1-1.5 1.5h-5.5a1.5 1.5 0 0 1-1.5-1.5V7.38" vector-effect="non-scaling-stroke"/><path d="M5.5 9.75a.5.5 0 0 1 .5-.5h2a.5.5 0 0 1 .5.5v3h-3z" vector-effect="non-scaling-stroke"/><path stroke-linecap="square" d="M10.219 7.499a1.406 1.406 0 0 0 1.822-2.142L7.992 1.865a1.52 1.52 0 0 0-1.984 0L1.959 5.357a1.406 1.406 0 0 0 1.822 2.142l3.207-2.691a.02.02 0 0 1 .024 0z" vector-effect="non-scaling-stroke"/></g><defs><clipPath id="delivered-a"><path fill="#fff" d="M0 0h14v14H0z" vector-effect="non-scaling-stroke"/></clipPath></defs></symbol><symbol id="delivery" viewBox="0 0 14 14"><g clip-path="url(#delivery-a)"><path stroke-linecap="round" stroke-linejoin="round" d="m1.06 1.226.71-.006a.75.75 0 0 1 .731.556l2.29 8.544m1.53.884 6.619-1.773M3.857 6.834l5.795-1.553a1 1 0 0 1 1.225.707l.999 3.727M2.822 2.97l3.961-1.062a1 1 0 0 1 1.225.708l.776 2.897m-2.462 5.692a1.25 1.25 0 1 1-2.415.647 1.25 1.25 0 0 1 2.415-.647" vector-effect="non-scaling-stroke"/></g><defs><clipPath id="delivery-a"><path fill="#fff" d="M0 0h14v14H0z" vector-effect="non-scaling-stroke"/></clipPath></defs></symbol><symbol id="disabled" viewBox="0 0 14 14"><g clip-path="url(#disabled-a)"><circle cx="7" cy="7" r="5.5" vector-effect="non-scaling-stroke"/><path d="m3.111 3.111 7.778 7.778" vector-effect="non-scaling-stroke"/></g><defs><clipPath id="disabled-a"><path fill="#fff" d="M0 0h14v14H0z" vector-effect="non-scaling-stroke"/></clipPath></defs></symbol><symbol id="discount" viewBox="0 0 14 14"><g stroke-linejoin="round" clip-path="url(#discount-a)"><path stroke-linecap="round" d="M10.5 1.5H7.93a2.5 2.5 0 0 0-1.8.766L1.52 7.052a1.5 1.5 0 0 0 .02 2.101l3.48 3.48a1.25 1.25 0 0 0 1.75.016l5.116-4.926a2 2 0 0 0 .613-1.441V3.5a2 2 0 0 0-2-2" vector-effect="non-scaling-stroke"/><circle cx="9.5" cy="4.5" r=".563" stroke-linecap="round" vector-effect="non-scaling-stroke"/><path d="M9.49 4.49h.02v.02h-.02z" vector-effect="non-scaling-stroke"/></g><defs><clipPath id="discount-a"><path fill="#fff" d="M0 0h14v14H0z" vector-effect="non-scaling-stroke"/></clipPath></defs></symbol><symbol id="edit" viewBox="0 0 14 14"><path stroke-linejoin="round" d="M9.19 2.31a1.5 1.5 0 0 1 2.12 0l.354.354a1.5 1.5 0 0 1 0 2.121l-6.477 6.477a1.5 1.5 0 0 1-.846.424l-1.737.252a.5.5 0 0 1-.567-.567l.252-1.737a1.5 1.5 0 0 1 .424-.846z" vector-effect="non-scaling-stroke"/><path d="m8 3.5 1.237 1.237 1.238 1.238" vector-effect="non-scaling-stroke"/></symbol><symbol id="email" viewBox="0 0 14 14"><path d="M1 4.5a2 2 0 0 1 2-2h8a2 2 0 0 1 2 2v5a2 2 0 0 1-2 2H3a2 2 0 0 1-2-2z" vector-effect="non-scaling-stroke"/><path stroke-linecap="round" d="m3.25 5.25 3.515 1.875a.5.5 0 0 0 .47 0L10.75 5.25" vector-effect="non-scaling-stroke"/></symbol><symbol id="empty" viewBox="0 0 14 14"/><symbol id="external" viewBox="0 0 14 14"><path stroke-linecap="round" d="M11 7.696v2.554A1.75 1.75 0 0 1 9.25 12h-5.5A1.75 1.75 0 0 1 2 10.25v-5.5C2 3.784 2.784 3 3.75 3h2.554" vector-effect="non-scaling-stroke"/><path stroke-linecap="round" stroke-linejoin="round" d="M12 2H8.8M12 2v3.2M12 2 7 7" vector-effect="non-scaling-stroke"/></symbol><symbol id="filter" viewBox="0 0 14 14"><path stroke-linecap="round" stroke-linejoin="round" d="M5 10.75h4" vector-effect="non-scaling-stroke"/><path stroke-linecap="round" d="M1 3.25h12M3 7h8" vector-effect="non-scaling-stroke"/></symbol><symbol id="geolocation" viewBox="0 0 14 14"><path stroke-linejoin="round" d="m7.875 11.697 4.003-8.578c.296-.635-.362-1.293-.997-.997L2.303 6.125c-.453.212-.35.884.146.949l3.385.446a.75.75 0 0 1 .646.646l.446 3.385c.065.495.737.599.949.146" vector-effect="non-scaling-stroke"/></symbol><symbol id="giftCard" viewBox="0 0 14 14"><g clip-path="url(#giftCard-a)"><path stroke-linecap="round" stroke-linejoin="round" d="M7 8v4.5" vector-effect="non-scaling-stroke"/><path d="M1.5 5.755c0-.693.562-1.255 1.255-1.255h8.49c.693 0 1.255.562 1.255 1.255v.99C12.5 7.438 11.938 8 11.245 8h-8.49A1.255 1.255 0 0 1 1.5 6.745zM2.5 8h9v2.75a1.75 1.75 0 0 1-1.75 1.75h-5.5a1.75 1.75 0 0 1-1.75-1.75z" vector-effect="non-scaling-stroke"/><path d="M4.524 4.017c.566.58 2.41.499 2.41.499s.08-1.888-.486-2.468c-.566-.579-1.455-.607-1.986-.064-.531.544-.503 1.454.062 2.033m4.952 0c-.566.58-2.41.499-2.41.499s-.08-1.888.486-2.468c.566-.579 1.455-.607 1.986-.064.531.544.503 1.454-.062 2.033" vector-effect="non-scaling-stroke"/></g><defs><clipPath id="giftCard-a"><path fill="#fff" d="M0 0h14v14H0z" vector-effect="non-scaling-stroke"/></clipPath></defs></symbol><symbol id="globe" viewBox="0 0 14 14"><g clip-path="url(#a)"><path stroke-linejoin="round" d="M9.1 1.807a5.6 5.6 0 0 0-7.218 2.916M9.1 1.807a5.6 5.6 0 0 1 3.345 6.509M9.1 1.807 9 2.3c-.102.25-.528.388-.9.5-.28.09-.91.1-.91.89-.019.237-.138.61-.284.81-.118.162-.448.334-.557.45-.116.08-.337.314-.297.62.05.38.308.83.854.88.437.04 1.71.017 2.292 0 .318-.05 1.292-.013 1.354 1.3.021.45-.045.566.4.566h1.493m0 0a5.6 5.6 0 0 1-5.68 4.28m0 0a5.6 5.6 0 0 1-4.883-7.873m4.884 7.873V10.6c-.03-.317-.319-.99-1.235-1.15-1.147-.2-1.135-1-1.135-1.608 0-.487-.363-.964-.544-1.142L2.2 5.06l-.318-.337" vector-effect="non-scaling-stroke"/></g></symbol><symbol id="grid" viewBox="0 0 14 14"><g clip-path="url(#grid-a)"><path d="M8 9a1 1 0 0 1 1-1h2.5a1 1 0 0 1 1 1v2.5a1 1 0 0 1-1 1H9a1 1 0 0 1-1-1zM5 8a1 1 0 0 1 1 1v2.5a1 1 0 0 1-1 1H2.5a1 1 0 0 1-1-1V9a1 1 0 0 1 1-1zm1-3a1 1 0 0 1-1 1H2.5a1 1 0 0 1-1-1V2.5a1 1 0 0 1 1-1H5a1 1 0 0 1 1 1zm3 1a1 1 0 0 1-1-1V2.5a1 1 0 0 1 1-1h2.5a1 1 0 0 1 1 1V5a1 1 0 0 1-1 1z" vector-effect="non-scaling-stroke"/></g><defs><clipPath id="grid-a"><path fill="#fff" d="M0 0h14v14H0z" vector-effect="non-scaling-stroke"/></clipPath></defs></symbol><symbol id="image" viewBox="0 0 14 14"><g clip-path="url(#image-a)"><path d="M1.5 4A2.5 2.5 0 0 1 4 1.5h6A2.5 2.5 0 0 1 12.5 4v6a2.5 2.5 0 0 1-2.5 2.5H4A2.5 2.5 0 0 1 1.5 10z" vector-effect="non-scaling-stroke"/><circle cx="9.25" cy="4.75" r=".5" vector-effect="non-scaling-stroke"/><path stroke-linejoin="round" d="M9.2 4.7h.1v.1h-.1z" vector-effect="non-scaling-stroke"/><path stroke-linecap="round" stroke-linejoin="round" d="m1.5 9 1.448-1.738a1.5 1.5 0 0 1 2.213-.1L6.94 8.938a1.5 1.5 0 0 0 2.122 0l.254-.254a1.5 1.5 0 0 1 2.232.124L12.5 10" vector-effect="non-scaling-stroke"/></g><defs><clipPath id="image-a"><path fill="#fff" d="M0 0h14v14H0z" vector-effect="non-scaling-stroke"/></clipPath></defs></symbol><symbol id="info" viewBox="0 0 14 14"><g clip-path="url(#info-a)"><circle cx="7" cy="7" r="5.5" vector-effect="non-scaling-stroke"/><path stroke-linejoin="round" d="M6.99 4.49h.02v.02h-.02z" vector-effect="non-scaling-stroke"/><path stroke-linecap="round" stroke-linejoin="round" d="M7 9.75v-3" vector-effect="non-scaling-stroke"/></g><defs><clipPath id="info-a"><path fill="#fff" d="M0 0h14v14H0z" vector-effect="non-scaling-stroke"/></clipPath></defs></symbol><symbol id="infoFilled" viewBox="0 0 14 14"><g clip-path="url(#infoFilled-a)"><circle cx="7" cy="7" r="5.5" stroke="currentColor" vector-effect="non-scaling-stroke"/><path fill="currentColor" fill-rule="evenodd" d="M7 12.5a5.5 5.5 0 1 0 0-11 5.5 5.5 0 0 0 0 11m.75-2a.75.75 0 0 1-1.5 0V7a.75.75 0 0 1 1.5 0zm-.76-7.26a.75.75 0 0 0-.75.75v.02c0 .414.336.75.75.75h.02a.75.75 0 0 0 .75-.75v-.02a.75.75 0 0 0-.75-.75z" clip-rule="evenodd" vector-effect="non-scaling-stroke"/></g><defs><clipPath id="infoFilled-a"><path fill="currentColor" d="M0 0h14v14H0z" vector-effect="non-scaling-stroke"/></clipPath></defs></symbol><symbol id="listBulleted" viewBox="0 0 14 14"><path stroke-linecap="round" stroke-linejoin="round" d="M5 3.25h6.75M5 7h6.75M5 10.75h6.75" vector-effect="non-scaling-stroke"/><path stroke-linejoin="round" d="M2.24 3.24h.02v.02h-.02zm0 3.75h.02v.02h-.02zm0 3.75h.02v.02h-.02z" vector-effect="non-scaling-stroke"/></symbol><symbol id="location" viewBox="0 0 14 14"><path d="M11.25 5.91c0 2.656-2.167 5.007-3.407 6.134a1.24 1.24 0 0 1-1.686 0C4.917 10.917 2.75 8.566 2.75 5.909 2.75 3.491 4.53 1.75 7 1.75s4.25 1.74 4.25 4.16" vector-effect="non-scaling-stroke"/><circle cx="7" cy="6" r="1.75" vector-effect="non-scaling-stroke"/></symbol><symbol id="lock" viewBox="0 0 14 14"><path d="M2.5 7c0-.966.784-1.75 1.75-1.75h5.5c.966 0 1.75.784 1.75 1.75v3.5a1.75 1.75 0 0 1-1.75 1.75h-5.5A1.75 1.75 0 0 1 2.5 10.5zm7-1.75V4.22c0-1.364-1.12-2.47-2.5-2.47S4.5 2.856 4.5 4.22v1.03" vector-effect="non-scaling-stroke"/></symbol><symbol id="map" viewBox="0 0 14 14"><g clip-path="url(#map-a)"><path stroke-linecap="round" stroke-linejoin="round" d="M5.036 4.25 2.71 2.441a.75.75 0 0 0-1.21.592V9.14c0 .385.178.75.483.986L5.036 12.5m0-8.25L8.964 1.5M5.036 4.25v8.25m3.928-11 3.053 2.375c.305.236.483.6.483.986v6.106a.75.75 0 0 1-1.21.591L8.964 9.75m0-8.25v8.25M5.036 12.5l3.928-2.75" vector-effect="non-scaling-stroke"/></g><defs><clipPath id="map-a"><path fill="#fff" d="M0 0h14v14H0z" vector-effect="non-scaling-stroke"/></clipPath></defs></symbol><symbol id="menu" viewBox="0 0 14 14"><path stroke-linecap="round" stroke-linejoin="round" d="M2.5 3h9m-9 4h9m-9 4h9" vector-effect="non-scaling-stroke"/></symbol><symbol id="menuHorizontal" viewBox="0 0 14 14"><circle cx="2.25" cy="7" r=".75" vector-effect="non-scaling-stroke"/><circle cx="7" cy="7" r=".75" vector-effect="non-scaling-stroke"/><circle cx="11.75" cy="7" r=".75" vector-effect="non-scaling-stroke"/><path stroke-linejoin="round" d="M6.95 6.95h.1v.1h-.1zm4.75 0h.1v.1h-.1zm-9.5 0h.1v.1h-.1z" vector-effect="non-scaling-stroke"/></symbol><symbol id="menuVertical" viewBox="0 0 14 14"><circle cx="7" cy="11.75" r=".75" transform="rotate(-90 7 11.75)" vector-effect="non-scaling-stroke"/><circle cx="7" cy="7" r=".75" transform="rotate(-90 7 7)" vector-effect="non-scaling-stroke"/><circle cx="7" cy="2.25" r=".75" transform="rotate(-90 7 2.25)" vector-effect="non-scaling-stroke"/><path stroke-linejoin="round" d="M6.95 6.95h.1v.1h-.1zm0 4.75h.1v.1h-.1zm0-9.5h.1v.1h-.1z" vector-effect="non-scaling-stroke"/></symbol><symbol id="minus" viewBox="0 0 14 14"><path stroke-linecap="round" d="M2.75 7h8.5" vector-effect="non-scaling-stroke"/></symbol><symbol id="mobile" viewBox="0 0 14 14"><path d="M3.25 3.25c0-.966.784-1.75 1.75-1.75h4c.966 0 1.75.784 1.75 1.75v7.5A1.75 1.75 0 0 1 9 12.5H5a1.75 1.75 0 0 1-1.75-1.75z" vector-effect="non-scaling-stroke"/><path stroke-linecap="round" stroke-linejoin="round" d="M6 10.5h2" vector-effect="non-scaling-stroke"/><path stroke-linecap="round" d="M6 2h2" vector-effect="non-scaling-stroke"/></symbol><symbol id="note" viewBox="0 0 14 14"><g clip-path="url(#note-a)"><path stroke-linejoin="round" d="M10.5 1.5h-7a2 2 0 0 0-2 2v7a2 2 0 0 0 2 2h4.172a2 2 0 0 0 1.414-.586l2.828-2.828a2 2 0 0 0 .586-1.414V3.5a2 2 0 0 0-2-2" vector-effect="non-scaling-stroke"/><path d="M8.5 12.5v-3a1 1 0 0 1 1-1h3" vector-effect="non-scaling-stroke"/><path stroke-linecap="round" stroke-linejoin="round" d="M4.25 4.25h5.5m-5.5 2.5h2.5" vector-effect="non-scaling-stroke"/></g><defs><clipPath id="note-a"><path fill="#fff" d="M0 0h14v14H0z" vector-effect="non-scaling-stroke"/></clipPath></defs></symbol><symbol id="order" viewBox="0 0 14 14"><g clip-path="url(#order-a)"><path stroke-linecap="round" d="M1.5 4.827c0-.375.12-.74.343-1.04l1.315-1.78A1.25 1.25 0 0 1 4.163 1.5h5.77c.41 0 .793.2 1.027.536L12.187 3.8c.204.294.313.643.313 1v6.451c0 .69-.56 1.25-1.25 1.25h-8.5c-.69 0-1.25-.56-1.25-1.25z" vector-effect="non-scaling-stroke"/><path d="M1.5 4.25h11M7 1.5v2.75m-3 5.5v-2a.25.25 0 0 1 .25-.25h3a.25.25 0 0 1 .25.25v2a.25.25 0 0 1-.25.25h-3A.25.25 0 0 1 4 9.75" vector-effect="non-scaling-stroke"/></g><defs><clipPath id="order-a"><path fill="#fff" d="M0 0h14v14H0z" vector-effect="non-scaling-stroke"/></clipPath></defs></symbol><symbol id="organization" viewBox="0 0 18 18"><path stroke-linecap="round" stroke-linejoin="round" d="M5.4 16.2v-2.864c0-.703.56-1.273 1.252-1.273h.94c.69 0 1.252.57 1.252 1.273V16.2M12.66 4.505h2.288c.691 0 1.252.57 1.252 1.273v9.149c0 .703-.56 1.273-1.252 1.273l-3.522-.003M1.8 3.232v11.695c0 .703.56 1.273 1.252 1.273h8.296c.691 0 1.252-.57 1.252-1.273V3.232c0-.703-.56-1.432-1.252-1.432H3.052c-.691 0-1.252.729-1.252 1.432m3.444 1.83h.47m2.973 0h.47M5.244 8.244h.47m2.973 0h.47" vector-effect="non-scaling-stroke"/></symbol><symbol id="packageDelivery" viewBox="0 0 18 18"><path stroke-linecap="round" d="M3.619 8.556V6.173a1.78 1.78 0 0 1 1.075-1.635L9.14 2.636a1.78 1.78 0 0 1 1.404 0l4.445 1.902a1.78 1.78 0 0 1 1.075 1.635v5.654a1.78 1.78 0 0 1-1.075 1.635l-4.445 1.902a1.78 1.78 0 0 1-1.404 0L8.286 15" vector-effect="non-scaling-stroke"/><path stroke-linejoin="round" d="M3.619 5 9.84 7.667m0 0L16.063 5M9.841 7.667v7.555" vector-effect="non-scaling-stroke"/><path d="m6.73 3.667 6.222 2.666Zm0 0 6.222 2.666M1.841 9.889l1.556.667 1.555.666m.738 2.667-1.556-.667-.773-.338" vector-effect="non-scaling-stroke"/><path stroke-linecap="round" d="m1.841 9.889 1.556.667 1.555.666m.738 2.667-1.556-.667-.773-.338" vector-effect="non-scaling-stroke"/></symbol><symbol id="plus" viewBox="0 0 14 14"><path stroke-linecap="round" d="M2 7h10M7 2v10" vector-effect="non-scaling-stroke"/></symbol><symbol id="profile" viewBox="0 0 14 14"><g clip-path="url(#profile-a)"><circle cx="7" cy="7" r="5.5" vector-effect="non-scaling-stroke"/><circle cx="7" cy="5.5" r="1.75" vector-effect="non-scaling-stroke"/><path stroke-linecap="round" stroke-linejoin="round" d="m10.5 11-.088-.11A4.37 4.37 0 0 0 7 9.25a4.37 4.37 0 0 0-3.412 1.64L3.5 11" vector-effect="non-scaling-stroke"/></g><defs><clipPath id="profile-a"><path fill="#fff" d="M0 0h14v14H0z" vector-effect="non-scaling-stroke"/></clipPath></defs></symbol><symbol id="questionCircle" viewBox="0 0 14 14"><g clip-path="url(#questionCircle-a)"><circle cx="7" cy="7" r="5.5" vector-effect="non-scaling-stroke"/><path stroke-linejoin="round" d="M6.99 10.24h.02v.02h-.02z" vector-effect="non-scaling-stroke"/><path stroke-linecap="round" d="M5.5 5.25a1.5 1.5 0 1 1 2.428 1.179C7.494 6.77 7 7.198 7 7.75" vector-effect="non-scaling-stroke"/></g><defs><clipPath id="questionCircle-a"><path fill="#fff" d="M0 0h14v14H0z" vector-effect="non-scaling-stroke"/></clipPath></defs></symbol><symbol id="questionCircleFilled" viewBox="0 0 14 14"><g clip-path="url(#questionCircleFilled-a)"><circle cx="7" cy="7" r="5.5" stroke="currentColor" vector-effect="non-scaling-stroke"/><path fill="currentColor" fill-rule="evenodd" d="M7 12.5a5.5 5.5 0 1 0 0-11 5.5 5.5 0 0 0 0 11m-.8-2.3a.75.75 0 0 1 .75-.75h.1a.75.75 0 0 1 .75.75v.1a.75.75 0 0 1-.75.75h-.1a.75.75 0 0 1-.75-.75zm.05-4.95a.75.75 0 1 1 1.213.59 4.7 4.7 0 0 0-.744.697c-.238.293-.469.701-.469 1.213a.75.75 0 0 0 1.5 0c0-.04.016-.122.133-.266.12-.148.293-.296.509-.466A2.25 2.25 0 1 0 4.75 5.25a.75.75 0 0 0 1.5 0" clip-rule="evenodd" vector-effect="non-scaling-stroke"/></g><defs><clipPath id="questionCircleFilled-a"><path fill="currentColor" d="M0 0h14v14H0z" vector-effect="non-scaling-stroke"/></clipPath></defs></symbol><symbol id="reorder" viewBox="0 0 14 14"><path stroke-linecap="round" stroke-linejoin="round" d="M9.5 12 12 9.474M9.5 12 7 9.474M9.5 12V4m-5-2L7 4.526M4.5 2 2 4.526M4.5 2v8" vector-effect="non-scaling-stroke"/></symbol><symbol id="reset" viewBox="0 0 14 14"><path stroke-linecap="round" stroke-linejoin="round" d="M1.5 3.688 3.375 2M1.5 3.688l1.875 1.874M1.5 3.688h7.188A2.813 2.813 0 0 1 11.5 6.5m1 3.813L10.625 12m1.875-1.687-1.875-1.876m1.875 1.876H5.313A2.813 2.813 0 0 1 2.5 7.5" vector-effect="non-scaling-stroke"/></symbol><symbol id="return" viewBox="0 0 34 34"><path stroke-linecap="round" stroke-linejoin="round" d="M17.02 2v7.475m0-7.475h6.843a5.47 5.47 0 0 1 4.462 2.296L32 9.475M17.02 2h-6.665a5.47 5.47 0 0 0-4.374 2.177L2 9.475m15.02 0H2m15.02 0H32m0 0v7.697M2 9.475v14.113c0 2.24 1.831 4.054 4.09 4.054h6.831M32 23.843c0 2.098-1.716 3.8-3.834 3.8h-8.38m0 0 3.967-3.27m-3.967 3.27L23.753 31" vector-effect="non-scaling-stroke"/></symbol><symbol id="savings" viewBox="0 0 14 14"><path stroke-linecap="round" stroke-linejoin="round" d="M12.75 3.25v2.844a2.5 2.5 0 0 1-.708 1.743L7.75 12.25m1-10.5H6.699a2 2 0 0 0-1.414.586L1.737 5.883a1.75 1.75 0 0 0 0 2.475l2.332 2.331a1.5 1.5 0 0 0 2.121 0l3.724-3.724a2 2 0 0 0 .586-1.414V3.5a1.75 1.75 0 0 0-1.75-1.75" vector-effect="non-scaling-stroke"/><circle cx="7.75" cy="4.5" r=".563" stroke-linecap="round" stroke-linejoin="round" vector-effect="non-scaling-stroke"/><path stroke-linejoin="round" d="M7.74 4.49h.02v.02h-.02z" vector-effect="non-scaling-stroke"/></symbol><symbol id="search" viewBox="0 0 14 14"><circle cx="6" cy="6" r="4" vector-effect="non-scaling-stroke"/><path stroke-linecap="round" stroke-linejoin="round" d="m9.25 9.25 2.5 2.5" vector-effect="non-scaling-stroke"/></symbol><symbol id="settings" viewBox="0 0 14 14"><path d="M8.24 2.259a.75.75 0 0 0-.741-.759H6.5a.75.75 0 0 0-.74.759v.563c0 .322-.202.602-.48.75a4 4 0 0 0-.309.185c-.266.178-.607.22-.882.057l-.48-.284a.73.73 0 0 0-1.012.278l-.499.884a.77.77 0 0 0 .272 1.037l.518.306c.268.159.405.472.395.79a4 4 0 0 0 .003.328c.017.324-.12.647-.394.81l-.522.308a.77.77 0 0 0-.272 1.037l.499.884a.73.73 0 0 0 1.012.278l.56-.331c.27-.16.603-.123.867.045q.119.075.244.143c.278.148.48.428.48.75v.664a.75.75 0 0 0 .74.759h1a.75.75 0 0 0 .74-.759v-.664c0-.322.202-.602.48-.75a4 4 0 0 0 .244-.143c.264-.168.598-.205.867-.045l.56.33a.73.73 0 0 0 1.012-.277l.499-.884a.77.77 0 0 0-.271-1.037l-.523-.308c-.275-.163-.41-.486-.394-.81a4 4 0 0 0 .003-.328c-.01-.318.127-.631.396-.79l.518-.306a.77.77 0 0 0 .27-1.037l-.498-.884a.73.73 0 0 0-1.012-.278l-.48.284c-.275.162-.616.12-.882-.057a4 4 0 0 0-.309-.185c-.278-.148-.48-.429-.48-.75z" vector-effect="non-scaling-stroke"/><circle cx="7" cy="7" r="1.25" vector-effect="non-scaling-stroke"/></symbol><symbol id="star" viewBox="0 0 14 14"><path d="M6.564 2.273a.5.5 0 0 1 .872 0l1.356 2.406a.5.5 0 0 0 .337.245l2.708.546a.5.5 0 0 1 .269.829l-1.87 2.034a.5.5 0 0 0-.128.396l.317 2.744a.5.5 0 0 1-.705.512l-2.512-1.15a.5.5 0 0 0-.416 0l-2.512 1.15a.5.5 0 0 1-.705-.512l.317-2.744a.5.5 0 0 0-.128-.396l-1.87-2.034a.5.5 0 0 1 .27-.829l2.707-.546a.5.5 0 0 0 .337-.245z" vector-effect="non-scaling-stroke"/></symbol><symbol id="starFilled" viewBox="0 0 14 14"><path fill="currentColor" stroke="currentColor" d="M6.564 2.273a.5.5 0 0 1 .872 0l1.356 2.406a.5.5 0 0 0 .337.245l2.708.546a.5.5 0 0 1 .269.829l-1.87 2.034a.5.5 0 0 0-.128.396l.317 2.744a.5.5 0 0 1-.705.512l-2.512-1.15a.5.5 0 0 0-.416 0l-2.512 1.15a.5.5 0 0 1-.705-.512l.317-2.744a.5.5 0 0 0-.128-.396l-1.87-2.034a.5.5 0 0 1 .27-.829l2.707-.546a.5.5 0 0 0 .337-.245z" vector-effect="non-scaling-stroke"/></symbol><symbol id="starHalf" viewBox="0 0 28 28"><path fill="currentColor" fill-rule="evenodd" d="M11.824 3.81c.956-1.697 3.399-1.697 4.355 0l2.6 4.614 5.193 1.048c1.909.385 2.664 2.708 1.346 4.142l-3.585 3.9.608 5.26c.224 1.935-1.753 3.371-3.524 2.56l-4.816-2.203-4.816 2.204c-1.77.81-3.747-.626-3.523-2.56l.608-5.262-3.585-3.899c-1.318-1.434-.563-3.757 1.346-4.142l5.192-1.048zm3.218 16.442a2.5 2.5 0 0 0-1.04-.226V6.519c.17 0 .34.085.435.255l1.842 3.267a2.5 2.5 0 0 0 1.683 1.223l3.677.742a.5.5 0 0 1 .27.829l-2.54 2.761a2.5 2.5 0 0 0-.642 1.98l.43 3.725a.5.5 0 0 1-.704.512z" clip-rule="evenodd" vector-effect="non-scaling-stroke"/></symbol><symbol id="store" viewBox="0 0 18 18"><path d="M13 2.75H5A2.25 2.25 0 0 0 2.75 5v8A2.25 2.25 0 0 0 5 15.25h8A2.25 2.25 0 0 0 15.25 13V5A2.25 2.25 0 0 0 13 2.75" vector-effect="non-scaling-stroke"/><path stroke-linecap="round" d="m15.25 6-.1.4A2.09 2.09 0 0 1 13.13 8c-.96 0-1.8-.67-2.03-1.6L11 6l-.1.48C10.7 7.37 9.9 8 9 8s-1.7-.63-1.9-1.52L7 6l-.1.4A2.09 2.09 0 0 1 4.88 8c-.96 0-1.8-.67-2.03-1.6l-.1-.4" vector-effect="non-scaling-stroke"/><path d="M7 12a1 1 0 0 1 1-1h2a1 1 0 0 1 1 1v3.25H7z" vector-effect="non-scaling-stroke"/></symbol><symbol id="truck" viewBox="0 0 14 14"><circle cx="9.5" cy="10.25" r="1.5" stroke-linecap="round" stroke-linejoin="round" vector-effect="non-scaling-stroke"/><circle cx="3.75" cy="10.25" r="1.5" stroke-linecap="round" stroke-linejoin="round" vector-effect="non-scaling-stroke"/><path stroke-linecap="round" stroke-linejoin="round" d="M1 5.5h4.5m-.25 4.75H8m-5.25-8h5.344a2 2 0 0 1 1.904 1.385L10.47 5.1a1 1 0 0 0 .508.588l.91.452A2 2 0 0 1 13 7.93v.819a1.5 1.5 0 0 1-1.5 1.5H11M1.25 8.75h2.5" vector-effect="non-scaling-stroke"/></symbol><symbol id="upload" viewBox="0 0 14 14"><path stroke="currentColor" stroke-linecap="round" d="M12 4v-.5A1.5 1.5 0 0 0 10.5 2h-7A1.5 1.5 0 0 0 2 3.5V4" vector-effect="non-scaling-stroke"/><path stroke="currentColor" stroke-linecap="round" stroke-linejoin="round" d="m7 5 2.5 2.47M7 5 4.5 7.47M7 5v7" vector-effect="non-scaling-stroke"/></symbol><symbol id="x" viewBox="0 0 14 14"><path stroke-linecap="round" d="M2.5 2.5 7 7m4.5 4.5L7 7m0 0 4.5-4.5M7 7l-4.5 4.5" vector-effect="non-scaling-stroke"/></symbol><symbol id="xCircle" viewBox="0 0 14 14"><g clip-path="url(#xCircle-a)"><circle cx="7" cy="7" r="5.5" vector-effect="non-scaling-stroke"/><path stroke-linecap="round" d="M9 9 5 5m0 4 4-4" vector-effect="non-scaling-stroke"/></g><defs><clipPath id="xCircle-a"><path fill="#fff" d="M0 0h14v14H0z" vector-effect="non-scaling-stroke"/></clipPath></defs></symbol><symbol id="xCircleFilled" viewBox="0 0 14 14"><g clip-path="url(#xCircleFilled-a)"><circle cx="7" cy="7" r="5.5" stroke="currentColor" vector-effect="non-scaling-stroke"/><path fill="currentColor" fill-rule="evenodd" d="M12.5 7a5.5 5.5 0 1 1-11 0 5.5 5.5 0 0 1 11 0M4.22 4.22a.75.75 0 0 1 1.06 0L7 5.94l1.72-1.72a.75.75 0 0 1 1.06 1.06L8.06 7l1.72 1.72a.75.75 0 0 1-1.06 1.06L7 8.06 5.28 9.78a.75.75 0 0 1-1.06-1.06L5.94 7 4.22 5.28a.75.75 0 0 1 0-1.06" clip-rule="evenodd" vector-effect="non-scaling-stroke"/></g><defs><clipPath id="xCircleFilled-a"><path fill="currentColor" d="M0 0h14v14H0z" vector-effect="non-scaling-stroke"/></clipPath></defs></symbol></svg>