<svg viewBox="0 0 300 300" height="30" width="30" xmlns="http://www.w3.org/2000/svg" version="1.1"><path transform="translate(173,28)" fill="#010101" d="M0 0 C0.92039063 0.474375 1.84078125 0.94875 2.7890625 1.4375 C14.65048616 8.23412844 21.15358374 18.05268814 25 31 C26.19147474 35.61485207 26.11403708 40.08298209 26.0625 44.8125 C26.05798828 45.60076172 26.05347656 46.38902344 26.04882812 47.20117188 C26.03711312 49.13414761 26.01917998 51.06708393 26 53 C27.01835937 52.97905273 28.03671875 52.95810547 29.0859375 52.93652344 C32.89519976 52.86365316 36.7044015 52.8180312 40.51416016 52.78027344 C42.1571695 52.76026429 43.80010859 52.73304787 45.44287109 52.69824219 C47.81625788 52.64924695 50.18869649 52.62692496 52.5625 52.609375 C53.64893799 52.57840729 53.64893799 52.57840729 54.75732422 52.54681396 C60.04671486 52.54453143 64.86191236 53.53319422 69 57 C72.09084264 61.78511689 73.56506687 65.39746605 74.27825928 71.12791443 C74.36743158 71.81020412 74.45660388 72.49249381 74.54847836 73.19545895 C74.84084666 75.46132128 75.11133618 77.72923421 75.38183594 79.99780273 C75.58801583 81.6313195 75.7955352 83.26466767 76.00428772 84.89785767 C76.56551186 89.31973447 77.10765428 93.74376129 77.64608669 98.16846347 C78.213507 102.80649275 78.79763044 107.44241923 79.37969971 112.07862854 C80.35471703 119.86407697 81.31822048 127.65087915 82.27392578 135.4387207 C83.49912001 145.42209945 84.74307126 155.40304575 85.9930687 165.3833456 C87.06952672 173.97915026 88.13751129 182.57600455 89.20406055 191.17304349 C89.54629552 193.92892746 89.88965212 196.68467003 90.23314667 199.44039726 C90.77321945 203.77772401 91.30799474 208.11567386 91.83874321 212.45415115 C92.033797 214.04259822 92.23048105 215.63084611 92.42894936 217.21887016 C92.70043525 219.39374741 92.96580846 221.56928899 93.22967529 223.74510193 C93.37934124 224.96015128 93.52900719 226.17520063 93.68320847 227.42706966 C94.73839276 239.32795581 94.73839276 239.32795581 91 245 C85.84950342 249.64800911 82.59213406 250.14972925 75.83418274 250.15390015 C74.97986685 250.1582824 74.12555097 250.16266465 73.24534672 250.1671797 C70.36579213 250.18059703 67.48626816 250.18675316 64.60668945 250.19287109 C62.54881145 250.20076979 60.49093483 250.2090386 58.43305969 250.21765137 C51.65981372 250.24389985 44.88656148 250.25918251 38.11328125 250.2734375 C35.7837187 250.27879615 33.4541562 250.28417365 31.12459373 250.28956985 C21.43527545 250.31120334 11.74595884 250.32994055 2.05662251 250.34119225 C-11.83948877 250.35743377 -25.7353205 250.3906114 -39.63132638 250.44759309 C-49.3961512 250.48627199 -59.16090119 250.50582256 -68.92580062 250.51111281 C-74.76061944 250.51476925 -80.5951403 250.52682185 -86.42987633 250.55921555 C-91.92023223 250.58925953 -97.41010933 250.5956209 -102.90052986 250.58383179 C-104.9149186 250.58361074 -106.92932931 250.59194127 -108.94364166 250.60948563 C-111.69609287 250.63215258 -114.44680435 250.62389388 -117.19926453 250.60800171 C-117.99460954 250.6218838 -118.78995455 250.63576588 -119.60940093 250.65006864 C-125.31711789 250.56898793 -128.87922788 248.97777151 -133 245 C-139.0633997 236.80668326 -134.43070043 220.42483037 -133.21166992 210.85009766 C-133.01879166 209.28476473 -132.8266389 207.71934226 -132.63514709 206.15383911 C-132.11820476 201.94662626 -131.59052916 197.74082807 -131.06021285 193.53528261 C-130.61693967 190.01159083 -130.17915018 186.48722645 -129.7413519 182.96285093 C-128.70854735 174.6489024 -127.66710603 166.33606835 -126.61987305 158.02392578 C-125.54194319 149.46711533 -124.47746382 140.90870867 -123.41973037 132.34938014 C-122.50800592 124.9748773 -121.58860119 117.60136061 -120.66292459 110.22859609 C-120.11145496 105.8359964 -119.56270762 101.4431031 -119.02110863 97.04927444 C-118.51205946 92.92269394 -117.99336569 88.79743632 -117.46735191 84.67298508 C-117.27651628 83.16418423 -117.08899465 81.65495974 -116.90512466 80.14529419 C-114.56140101 60.94452305 -114.56140101 60.94452305 -109 56.0625 C-104.26438713 52.80676616 -100.3799484 52.86525124 -94.83203125 52.90234375 C-94.03721848 52.9037587 -93.2424057 52.90517365 -92.42350769 52.90663147 C-89.88646675 52.91222622 -87.34951425 52.92477772 -84.8125 52.9375 C-83.09179815 52.94251568 -81.37109492 52.94707847 -79.65039062 52.95117188 C-75.4335597 52.96219393 -71.21679484 52.97945494 -67 53 C-67.05800781 51.71867187 -67.11601563 50.43734375 -67.17578125 49.1171875 C-67.62221288 35.03479519 -66.48519843 23.12060227 -56.875 11.95703125 C-42.3862672 -3.16558361 -19.50894263 -10.33912417 0 0 Z M-49.45703125 22.6953125 C-55.85191607 32.24716577 -55 41.43945158 -55 53 C-32.56 53 -10.12 53 13 53 C14.02763184 37.7003027 14.02763184 37.7003027 9 25 C8.36384766 23.96359375 8.36384766 23.96359375 7.71484375 22.90625 C2.8407811 15.62909796 -4.24265213 10.91671207 -12.62109375 8.46875 C-27.58910558 5.51938806 -39.96910356 11.18821484 -49.45703125 22.6953125 Z M-101 66 C-102.70147158 70.25367895 -103.44483097 73.18653109 -103.99978638 77.63511658 C-104.08316627 78.28852368 -104.16654617 78.94193079 -104.25245273 79.61513811 C-104.52906498 81.79597269 -104.79601721 83.97787794 -105.06298828 86.15991211 C-105.25975468 87.72732086 -105.45710639 89.29465623 -105.65499878 90.86192322 C-106.1900049 95.1132015 -106.71654307 99.36548968 -107.24136972 103.61803508 C-107.7921467 108.07074264 -108.35002329 112.52256104 -108.9069519 116.97450256 C-109.84120928 124.45142392 -110.77018111 131.92898711 -111.69580078 139.40698242 C-112.76544362 148.04816996 -113.84239671 156.68842126 -114.92351353 165.32818025 C-115.96398134 173.64378098 -117.00023395 181.95990112 -118.03423691 190.27630806 C-118.47402849 193.81338898 -118.915115 197.35030484 -119.35721207 200.88709831 C-119.87778728 205.0538383 -120.39460981 209.22102742 -120.90855789 213.38858986 C-121.09756558 214.91654909 -121.28781515 216.4443553 -121.47940826 217.97199249 C-121.74108732 220.06022185 -121.99820207 222.14896512 -122.25418091 224.23789978 C-122.47151477 225.98970503 -122.47151477 225.98970503 -122.69323921 227.77690029 C-122.98893555 230.88374716 -123.12888441 233.88180366 -123 237 C-121.24429844 238.75570156 -118.9332034 238.13030785 -116.5932737 238.1430676 C-115.81157922 238.14220112 -115.02988475 238.14133463 -114.22450256 238.14044189 C-112.98802126 238.14489858 -112.98802126 238.14489858 -111.72656053 238.1494453 C-108.94277834 238.15817114 -106.15903896 238.1596438 -103.37524414 238.16113281 C-101.38821825 238.16575819 -99.40119326 238.17078247 -97.41416931 238.17617798 C-92.00104408 238.18932983 -86.58793125 238.19575219 -81.17479253 238.20018864 C-77.79727144 238.2031145 -74.41975379 238.20721834 -71.04223442 238.21169281 C-60.48738751 238.22537425 -49.9325484 238.23503809 -39.37769324 238.2388947 C-27.16991499 238.24337908 -14.96224851 238.26094191 -2.75450426 238.2898953 C6.66627832 238.31146774 16.08702936 238.32159658 25.5078364 238.32293582 C31.14177746 238.32398692 36.77561355 238.32995926 42.40952873 238.34775543 C47.70607079 238.36415989 53.00242812 238.36642897 58.29898643 238.35761642 C60.24773399 238.35684197 62.19649117 238.36124198 64.14521408 238.37107468 C66.79620655 238.383671 69.44653244 238.37798529 72.09751892 238.36749268 C72.87698267 238.37554908 73.65644643 238.38360548 74.45953029 238.39190602 C76.81670992 238.40548108 76.81670992 238.40548108 80 238 C82.54337711 234.18493434 82.0191569 232.8033978 81.44999695 228.31272888 C81.32498667 227.2880708 81.32498667 227.2880708 81.19745094 226.24271256 C80.91448776 223.94729845 80.61480536 221.65437889 80.31518555 219.36108398 C80.1092143 217.7187117 79.90426232 216.07621131 79.70025635 214.43359375 C79.14254037 209.96751106 78.57025865 205.50340232 77.9952085 201.03952289 C77.39650252 196.37427729 76.81043742 191.70744387 76.22285461 187.04078674 C75.23426146 179.20399987 74.23690253 171.36836937 73.23364258 163.53344727 C71.94472904 153.46738162 70.67004619 143.39956813 69.39993572 133.33111477 C68.30939697 124.68692771 67.21252247 116.04354645 66.11452508 107.40030408 C65.76108545 104.61610494 65.40848321 101.83180064 65.05597496 99.04748344 C64.50234748 94.67797565 63.94478519 90.30898705 63.38412476 85.94037628 C63.17847963 84.33365649 62.97408434 82.72677618 62.77100563 81.11973 C62.49440588 78.93279497 62.21329709 76.7464873 61.93095398 74.56028748 C61.77441691 73.33451209 61.61787985 72.10873671 61.45659924 70.84581661 C61.155788 68.06168326 61.155788 68.06168326 60 66 C6.87 66 -46.26 66 -101 66 Z"></path><path transform="translate(212.48828125,107.515625)" fill="#683CF4" d="M0 0 C10.44490064 6.17272511 18.61280124 14.40681547 22.05810547 26.38378906 C24.49402294 37.66400107 23.17788029 50.23103478 16.93359375 59.9375 C10.05619471 69.29324104 1.73929858 75.38392699 -9.48828125 78.484375 C-22.70452558 80.01058671 -33.8083678 78.32499939 -44.86328125 70.609375 C-52.52917303 64.35603885 -58.36974698 56.29485337 -60.48828125 46.484375 C-61.32578832 32.63118429 -60.61380526 21.53420148 -51.33984375 10.484375 C-38.28741077 -3.61445556 -17.68691814 -8.7817892 0 0 Z M-42.203125 17.18359375 C-48.18085423 23.68748008 -50.47484437 30.72352728 -50.48828125 39.484375 C-49.65388922 48.64751654 -45.01468723 55.71587431 -38.4296875 61.9453125 C-32.35730257 66.75923536 -25.179668 68.75385424 -17.48828125 68.484375 C-6.75410979 67.04019152 0.53003604 62.63583065 7.26171875 54.2578125 C11.7300717 47.91833675 12.99038391 40.74098879 12.296875 33.125 C10.69711792 24.28824661 5.49041542 17.01678242 -1.48828125 11.484375 C-15.36876207 2.95447059 -30.96512821 6.04799328 -42.203125 17.18359375 Z"></path><path transform="translate(75,199)" fill="#683CF4" d="M0 0 C2.97 0 5.94 0 9 0 C10.61780157 1.61780157 10.22272147 3.45635518 10.31640625 5.69140625 C10.37924805 7.10776367 10.37924805 7.10776367 10.44335938 8.55273438 C10.48267578 9.54595703 10.52199219 10.53917969 10.5625 11.5625 C10.60568359 12.55958984 10.64886719 13.55667969 10.69335938 14.58398438 C10.79980298 17.0558415 10.90181928 19.5278031 11 22 C11.42490723 21.38576172 11.84981445 20.77152344 12.28759766 20.13867188 C14.79379519 16.62373586 16.53592453 14.2669092 20.9140625 13.46875 C23.64860354 13.49701399 26.28917036 13.64705292 29 14 C26.61820737 17.74281699 24.25524265 20.97727468 21 24 C22.480544 28.2078619 24.60377695 31.58112344 27.125 35.25 C31 40.90391459 31 40.90391459 31 42 C20.37075352 43.06801041 20.37075352 43.06801041 17.08984375 40.51171875 C15.31897455 38.01804579 14 36.10630411 14 33 C13.01 33.66 12.02 34.32 11 35 C10.26393501 38.56769552 10.26393501 38.56769552 10 42 C6.7 42 3.4 42 0 42 C0 28.14 0 14.28 0 0 Z"></path><path transform="translate(229,212)" fill="#673CF4" d="M0 0 C3.73389649 1.58889212 5.94280942 3.50277602 8 7 C9.26212145 11.57626348 9.11376805 16.10767053 9.0625 20.8125 C9.05798828 21.60076172 9.05347656 22.38902344 9.04882812 23.20117188 C9.03711312 25.13414761 9.01917998 27.06708393 9 29 C7.95199219 28.98259766 7.95199219 28.98259766 6.8828125 28.96484375 C5.97273438 28.95582031 5.06265625 28.94679687 4.125 28.9375 C3.22007812 28.92589844 2.31515625 28.91429687 1.3828125 28.90234375 C-1.0168585 28.83750743 -1.0168585 28.83750743 -3 30 C-7.65903554 30.56840234 -11.18446082 30.36407999 -15.5 28.4375 C-18 26 -18 26 -19.0625 22.5625 C-18.99278618 18.58881219 -18.46804381 17.06377852 -16 14 C-13.8125 12.1875 -13.8125 12.1875 -12 11 C-13.65 10.01 -15.3 9.02 -17 8 C-16.77347501 4.82865008 -15.9392256 3.94390056 -13.5625 1.75 C-8.89183628 -0.54436113 -5.11562339 -0.710028 0 0 Z M-8 8 C-8.99 9.485 -8.99 9.485 -10 11 C-7.03 11.33 -4.06 11.66 -1 12 C-1.66 10.68 -2.32 9.36 -3 8 C-5.41619823 7.74969023 -5.41619823 7.74969023 -8 8 Z M-9 19 C-9 19.99 -9 20.98 -9 22 C-7.20800528 22.78282648 -7.20800528 22.78282648 -5 23 C-2.71252627 21.78469266 -2.71252627 21.78469266 -1 20 C-1 19.34 -1 18.68 -1 18 C-5.14093698 17.79029441 -5.14093698 17.79029441 -9 19 Z"></path><path transform="translate(143.375,213.0625)" fill="#683CF4" d="M0 0 C3.32560025 2.45460971 4.54232122 5.0489236 5.625 8.9375 C5.96067605 12.2635247 5.91150849 15.53663688 5.8125 18.875 C5.79219727 20.18694336 5.79219727 20.18694336 5.77148438 21.52539062 C5.73644109 23.66303086 5.68264541 25.80034984 5.625 27.9375 C4.57699219 27.92009766 4.57699219 27.92009766 3.5078125 27.90234375 C2.59773438 27.89332031 1.68765625 27.88429687 0.75 27.875 C-0.15492188 27.86339844 -1.05984375 27.85179687 -1.9921875 27.83984375 C-4.3918585 27.77500743 -4.3918585 27.77500743 -6.375 28.9375 C-11.75189567 29.48680958 -16.01579868 29.47935108 -20.375 25.9375 C-21.98229993 22.72290014 -21.99430855 19.41361897 -21.375 15.9375 C-18.9375 13 -18.9375 13 -16.375 10.9375 C-16.045 10.6075 -15.715 10.2775 -15.375 9.9375 C-17.025 8.9475 -18.675 7.9575 -20.375 6.9375 C-19.46016297 3.552603 -18.71274897 2.17639561 -15.8125 0.125 C-10.25193138 -1.79592371 -5.60279825 -1.76384389 0 0 Z M-11.375 6.9375 C-12.365 8.4225 -12.365 8.4225 -13.375 9.9375 C-10.405 10.2675 -7.435 10.5975 -4.375 10.9375 C-5.035 9.6175 -5.695 8.2975 -6.375 6.9375 C-8.79119823 6.68719023 -8.79119823 6.68719023 -11.375 6.9375 Z M-10.375 16.9375 C-11.365 18.4225 -11.365 18.4225 -12.375 19.9375 C-11.715 20.5975 -11.055 21.2575 -10.375 21.9375 C-7.77219432 21.61708603 -7.77219432 21.61708603 -5.375 20.9375 C-5.045 19.6175 -4.715 18.2975 -4.375 16.9375 C-7.29134129 16.6872843 -7.29134129 16.6872843 -10.375 16.9375 Z"></path><path transform="translate(200,212)" fill="#683CF5" d="M0 0 C3.23168389 1.82660394 4.61908612 3.14294378 6.125 6.53125 C7.26395299 11.04638508 7.21571227 15.24169647 7.125 19.875 C7.11597656 20.75414062 7.10695312 21.63328125 7.09765625 22.5390625 C7.07424577 24.6928271 7.0383801 26.84645014 7 29 C3.7 29 0.4 29 -3 29 C-3.06058594 27.79601562 -3.12117188 26.59203125 -3.18359375 25.3515625 C-3.26799732 23.77602923 -3.35264541 22.20050904 -3.4375 20.625 C-3.47681641 19.8309375 -3.51613281 19.036875 -3.55664062 18.21875 C-3.68893404 13.97398779 -3.68893404 13.97398779 -5 10 C-6.65 10 -8.3 10 -10 10 C-11.6498007 13.29960141 -11.38258361 16.99127884 -11.5625 20.625 C-11.60568359 21.42679688 -11.64886719 22.22859375 -11.69335938 23.0546875 C-11.79951457 25.0362511 -11.90026855 27.01810271 -12 29 C-15.3 29 -18.6 29 -22 29 C-22 19.76 -22 10.52 -22 1 C-19.03 1 -16.06 1 -13 1 C-12.67 1.66 -12.34 2.32 -12 3 C-11.505 2.505 -11.01 2.01 -10.5 1.5 C-7.04165335 -0.57500799 -3.88463529 -0.68734103 0 0 Z"></path><path transform="translate(184.8125,128.8671875)" fill="#683CF5" d="M0 0 C0.721875 0.00257813 1.44375 0.00515625 2.1875 0.0078125 C2.909375 0.00523437 3.63125 0.00265625 4.375 0 C6.1875 0.1328125 6.1875 0.1328125 7.1875 1.1328125 C7.26075168 3.99548817 7.27988205 6.8335315 7.25 9.6953125 C7.24548828 10.50162109 7.24097656 11.30792969 7.23632812 12.13867188 C7.22450518 14.13675006 7.20656914 16.13479033 7.1875 18.1328125 C7.8487085 18.12757568 8.50991699 18.12233887 9.19116211 18.11694336 C12.16909851 18.09623594 15.14701982 18.08317238 18.125 18.0703125 C19.16591797 18.06193359 20.20683594 18.05355469 21.27929688 18.04492188 C22.26865234 18.04169922 23.25800781 18.03847656 24.27734375 18.03515625 C25.65200806 18.02730103 25.65200806 18.02730103 27.05444336 18.01928711 C29.1875 18.1328125 29.1875 18.1328125 30.1875 19.1328125 C30.3203125 20.9453125 30.3203125 20.9453125 30.3125 23.1328125 C30.31636719 24.215625 30.31636719 24.215625 30.3203125 25.3203125 C30.1875 27.1328125 30.1875 27.1328125 29.1875 28.1328125 C26.90802208 28.2330218 24.62542865 28.26362553 22.34375 28.265625 C21.65945923 28.26658173 20.97516846 28.26753845 20.2701416 28.26852417 C18.82088123 28.2692058 17.37161782 28.26735273 15.92236328 28.26318359 C13.69687072 28.25783502 11.47157999 28.2631291 9.24609375 28.26953125 C7.84114539 28.26887047 6.43619715 28.2675893 5.03125 28.265625 C3.74412109 28.26449707 2.45699219 28.26336914 1.13085938 28.26220703 C-1.8125 28.1328125 -1.8125 28.1328125 -2.8125 27.1328125 C-2.91221786 25.21822968 -2.94330589 23.29998933 -2.9453125 21.3828125 C-2.94660156 20.2175 -2.94789063 19.0521875 -2.94921875 17.8515625 C-2.94535156 16.624375 -2.94148437 15.3971875 -2.9375 14.1328125 C-2.94136719 12.905625 -2.94523438 11.6784375 -2.94921875 10.4140625 C-2.94792969 9.24875 -2.94664062 8.0834375 -2.9453125 6.8828125 C-2.94418457 5.80515625 -2.94305664 4.7275 -2.94189453 3.6171875 C-2.7640482 0.20253801 -2.7640482 0.20253801 0 0 Z"></path><path transform="translate(108,199)" fill="#683CF5" d="M0 0 C2.97 0 5.94 0 9 0 C9 13.86 9 27.72 9 42 C6.03 42 3.06 42 0 42 C0 28.14 0 14.28 0 0 Z"></path><path transform="translate(174,212)" fill="#683CF5" d="M0 0 C1.9375 1.5 1.9375 1.5 3 3 C1.4375 5.9375 1.4375 5.9375 -1 9 C-4.75 9.875 -4.75 9.875 -8 10 C-9.62849969 14.35590568 -10.34118446 18.23934612 -10.625 22.875 C-10.69976562 24.02742188 -10.77453125 25.17984375 -10.8515625 26.3671875 C-10.90054688 27.23601562 -10.94953125 28.10484375 -11 29 C-13.97 29 -16.94 29 -20 29 C-20 19.76 -20 10.52 -20 1 C-16.33333333 1 -12.66666667 1 -9 1 C-5.95016004 -0.52491998 -3.3576631 -0.23562548 0 0 Z"></path></svg>