<svg xmlns="http://www.w3.org/2000/svg" viewBox="0 0 16 16"><path fill-rule="evenodd" d="M9.75 8a.75.75 0 0 1-.75.75h-4.19l.97.97a.75.75 0 1 1-1.06 1.06l-2.25-2.25a.75.75 0 0 1 0-1.06l2.25-2.25a.75.75 0 0 1 1.06 1.06l-.97.97h4.19a.75.75 0 0 1 .75.75"/><path fill-rule="evenodd" d="M1.5 3.75a2.25 2.25 0 0 1 2.25-2.25h8.5a2.25 2.25 0 0 1 2.25 2.25v8.5a2.25 2.25 0 0 1-2.25 2.25h-8.5a2.25 2.25 0 0 1-2.25-2.25.75.75 0 0 1 1.5 0c0 .414.336.75.75.75h8.5a.75.75 0 0 0 .75-.75v-8.5a.75.75 0 0 0-.75-.75h-8.5a.75.75 0 0 0-.75.75.75.75 0 0 1-1.5 0"/></svg>