<svg xmlns="http://www.w3.org/2000/svg" viewBox="0 0 16 16"><path d="M9.977 2.751a7.6 7.6 0 0 0-1.977-.251c-2.444 0-4.196 1.045-5.325 2.233a7.2 7.2 0 0 0-1.243 1.773c-.26.532-.432 1.076-.432 1.494s.171.962.432 1.494c.172.353.4.733.687 1.115l1.074-1.074a5 5 0 0 1-.414-.7c-.221-.453-.279-.753-.279-.835s.058-.382.279-.835a5.7 5.7 0 0 1 .983-1.398c.89-.937 2.264-1.767 4.238-1.767q.36 0 .693.036z"/><path fill-rule="evenodd" d="M2.25 12.6a.75.75 0 0 0 1.067 1.053l1.062-1.061c.975.543 2.177.908 3.621.908 2.45 0 4.142-1.05 5.24-2.242 1.078-1.17 1.588-2.476 1.738-3.076a.75.75 0 0 0 0-.364c-.15-.6-.66-1.906-1.738-3.076a7 7 0 0 0-.51-.502l.923-.923a.749.749 0 0 0-1.053-1.068l-.008.008-10.335 10.336zm5.75-.6c-.978 0-1.809-.204-2.506-.523l1.108-1.109a2.75 2.75 0 0 0 3.767-3.766l1.298-1.299q.254.221.47.455a6.4 6.4 0 0 1 1.332 2.242 6.4 6.4 0 0 1-1.332 2.242c-.86.933-2.17 1.758-4.137 1.758m0-2.75q-.13-.001-.254-.026l1.478-1.478a1.25 1.25 0 0 1-1.224 1.504"/></svg>