<?xml version="1.0" encoding="UTF-8"?><svg id="Layer_1" xmlns="http://www.w3.org/2000/svg" width="30" height="30" viewBox="0 0 30 30"><path d="m3.62,12h1.76c.37,0,.66.3.66.66v6.52c0,.37-.3.66-.66.66h-1.76c-1.14,0-2.06-.92-2.06-2.06v-3.71c0-1.14.92-2.06,2.06-2.06Z" fill="none" stroke="#181623" stroke-linecap="round" stroke-linejoin="round" stroke-width="1.5"/><path d="m26.03,12h1.76c.37,0,.66.3.66.66v6.52c0,.37-.3.66-.66.66h-1.76c-1.14,0-2.06-.92-2.06-2.06v-3.71c0-1.14.92-2.06,2.06-2.06Z" transform="translate(52.41 31.83) rotate(180)" fill="none" stroke="#181623" stroke-linecap="round" stroke-linejoin="round" stroke-width="1.5"/><rect x="14.62" y="22.8" width="3" height="4.48" rx=".66" ry=".66" transform="translate(41.16 8.92) rotate(90)" fill="none" stroke="#181623" stroke-linecap="round" stroke-linejoin="round" stroke-width="1.5"/><path d="m6.04,14.76h0v-2.75c0-4.72,4.01-8.55,8.96-8.55h0c4.95,0,8.96,3.83,8.96,8.55v2.75s0,0,0,0v7.06c0,2-1.7,3.62-3.79,3.62h-1.81" fill="none" stroke="#181623" stroke-linecap="round" stroke-linejoin="round" stroke-width="1.5"/><path d="m20.25,10.79c-1.19-1.69-3.4-1.19-4.96.41l-.28.35-.28-.35c-1.56-1.6-3.77-2.1-4.96-.41-.74,1.06-.62,2.51.29,3.43l4.96,4.96,4.96-4.96c.91-.91,1.03-2.37.29-3.43Z" fill="none" stroke="#683df5" stroke-linecap="round" stroke-linejoin="round" stroke-width="1.5"/></svg>