<?xml version="1.0" encoding="UTF-8"?><svg id="Layer_1" xmlns="http://www.w3.org/2000/svg" width="30" height="30" viewBox="0 0 30 30"><path d="m6.13,6.13l1.04-.86c1.52-1.24,3.28-2.2,5.21-2.61.84-.18,1.72-.27,2.62-.27,7.44,0,13.37,6.44,12.53,14.04-.64,5.77-5.32,10.45-11.09,11.09-7.61.84-14.04-5.09-14.04-12.53M6.13,2.39v3.74h3.74" fill="none" stroke="#181623" stroke-linecap="round" stroke-linejoin="round" stroke-width="1.5"/><path d="m7.8,10.55l7.2,3.76,7.2-3.76v8.34l-7.36,3.66-7.05-3.79v-8.22Zm0,.65v7.57l7.05,3.79,7.36-3.66v-8.34l-7.2-3.1-7.2,3.1v.65Zm7.2,3.11v7.99" fill="none" stroke="#683df5" stroke-linecap="round" stroke-linejoin="round" stroke-width="1.5"/></svg>