<?xml version="1.0" encoding="UTF-8"?><svg id="Layer_1" xmlns="http://www.w3.org/2000/svg" width="30" height="30" viewBox="0 0 30 30"><polyline points="5.49 16.87 5.49 21.53 8.52 21.53" fill="none" stroke="#181623" stroke-linecap="round" stroke-linejoin="round" stroke-width="1.5"/><polyline points="18.86 21.53 18.86 6.16 5.49 6.16 5.49 9.73 5.49 10.66" fill="none" stroke="#181623" stroke-linecap="round" stroke-linejoin="round" stroke-width="1.5"/><polyline points="20.94 21.53 20.46 21.53 18.86 21.53 18.86 9.2 26.52 9.2 28.77 15.69 28.77 21.53 27.29 21.54 26.36 21.54" fill="none" stroke="#181623" stroke-linecap="round" stroke-linejoin="round" stroke-width="1.5"/><polyline points="28.08 14.38 23.46 14.38 23.46 9.64" fill="none" stroke="#181623" stroke-linecap="round" stroke-linejoin="round" stroke-width="1.5"/><circle cx="11.21" cy="21.37" r="2.47" fill="none" stroke="#181623" stroke-linecap="round" stroke-linejoin="round" stroke-width="1.5"/><circle cx="23.82" cy="21.37" r="2.47" fill="none" stroke="#181623" stroke-linecap="round" stroke-linejoin="round" stroke-width="1.5"/><polyline points="20.51 21.53 15.85 21.53 14.4 21.53" fill="none" stroke="#181623" stroke-linecap="round" stroke-linejoin="round" stroke-width="1.5"/><line x1="1.6" y1="10.66" x2="9.44" y2="10.66" fill="none" stroke="#683df5" stroke-linecap="round" stroke-linejoin="round" stroke-width="1.5"/><line x1="3.96" y1="13.45" x2="11.05" y2="13.45" fill="none" stroke="#683df5" stroke-linecap="round" stroke-linejoin="round" stroke-width="1.5"/><line x1="1.23" y1="16.24" x2="9.44" y2="16.24" fill="none" stroke="#683df5" stroke-linecap="round" stroke-linejoin="round" stroke-width="1.5"/></svg>