<svg xmlns="http://www.w3.org/2000/svg" viewBox="0 0 16 16"><path fill-rule="evenodd" d="M15.028 1.736a.75.75 0 0 0-.522-.662c-.568-.179-1.337-.118-2.138.077-.833.202-1.813.577-2.861 1.142-.562.303-1.145.661-1.74 1.08l-2.412-.646a.75.75 0 0 0-.777.252l-.035.033-1.061 1.06a.75.75 0 0 0 1.06 1.062l.846-.846.899.241a21.7 21.7 0 0 0-3.396 3.717.75.75 0 0 0 .077.97l3.885 3.885a.75.75 0 0 0 .951.09c.9-.608 2.343-1.87 3.7-3.455l.246.914-.845.846a.75.75 0 0 0 1.06 1.06l1.061-1.06.033-.035a.75.75 0 0 0 .253-.778l-.649-2.42c1.381-1.928 2.527-4.263 2.365-6.527m-7.57 9.85-2.97-2.971c1.605-2.085 3.36-3.565 4.952-4.55l.03.03 2.475 2.475.031.03q-.402.635-.871 1.247c-1.237 1.62-2.67 2.975-3.646 3.738Zm5.264-8.978c-.544.133-1.195.362-1.913.705l1.927 1.928c.45-.937.742-1.875.798-2.767a5 5 0 0 0-.812.134"/><path d="M3.305 10.967a.75.75 0 0 0-1.06 0l-.884.884a.75.75 0 0 0 1.06 1.06l.884-.883a.75.75 0 0 0 0-1.06Zm1.768 1.768a.75.75 0 0 0-1.06 0l-.885.884a.75.75 0 1 0 1.061 1.06l.884-.883a.75.75 0 0 0 0-1.061"/></svg>