<svg width="20" height="20" viewBox="0 0 20 20" fill="none" xmlns="http://www.w3.org/2000/svg">
<g clip-path="url(#clip0_2143_7327)">
<path d="M-0.000244141 15.4784C0.136121 13.8572 0.632337 12.3647 1.4884 11.0011C2.34447 9.63743 3.48463 8.55409 4.90889 7.75105L3.22705 4.84193C3.13614 4.70557 3.11342 4.56163 3.15887 4.41011C3.20433 4.2586 3.30281 4.14496 3.45433 4.0692C3.57554 3.99344 3.71191 3.97829 3.86342 4.02374C4.01494 4.0692 4.13615 4.16011 4.22706 4.29647L5.90889 7.20559C7.21194 6.66013 8.57558 6.3874 9.99984 6.3874C11.4241 6.3874 12.7877 6.66013 14.0908 7.20559L15.7726 4.29647C15.8635 4.16011 15.9847 4.0692 16.1363 4.02374C16.2878 3.97829 16.4241 3.99344 16.5453 4.0692C16.6969 4.14496 16.7953 4.2586 16.8408 4.41011C16.8863 4.56163 16.8635 4.70557 16.7726 4.84193L15.0908 7.75105C16.515 8.55409 17.6552 9.63743 18.5113 11.0011C19.3673 12.3647 19.8636 13.8572 19.9999 15.4784H-0.000244141ZM6.26117 12.6488C6.48087 12.4291 6.59072 12.1602 6.59072 11.842C6.59072 11.5238 6.48087 11.2549 6.26117 11.0352C6.04147 10.8155 5.77253 10.7056 5.45435 10.7056C5.13616 10.7056 4.86722 10.8155 4.64752 11.0352C4.42782 11.2549 4.31797 11.5238 4.31797 11.842C4.31797 12.1602 4.42782 12.4291 4.64752 12.6488C4.86722 12.8685 5.13616 12.9784 5.45435 12.9784C5.77253 12.9784 6.04147 12.8685 6.26117 12.6488ZM15.3522 12.6488C15.5719 12.4291 15.6817 12.1602 15.6817 11.842C15.6817 11.5238 15.5719 11.2549 15.3522 11.0352C15.1325 10.8155 14.8635 10.7056 14.5453 10.7056C14.2271 10.7056 13.9582 10.8155 13.7385 11.0352C13.5188 11.2549 13.409 11.5238 13.409 11.842C13.409 12.1602 13.5188 12.4291 13.7385 12.6488C13.9582 12.8685 14.2271 12.9784 14.5453 12.9784C14.8635 12.9784 15.1325 12.8685 15.3522 12.6488Z" fill="white"/>
</g>
<defs>
<clipPath id="clip0_2143_7327">
<rect width="20" height="20" fill="white"/>
</clipPath>
</defs>
</svg>
