<svg width="20" height="20" viewBox="0 0 20 20" fill="none" xmlns="http://www.w3.org/2000/svg">
<path d="M14.5897 13.4119L5.24186 18.7983C4.83238 19.0342 4.38153 19.0514 3.99219 18.9099L12.0296 10.8423L14.5897 13.4119Z" fill="white"/>
<path d="M11.2755 10.0863L3.17934 18.2127C3.0659 18.0032 3.00001 17.7604 3 17.4947V2.50569C3 2.28758 3.04431 2.08482 3.12292 1.90332L11.2755 10.0863Z" fill="white"/>
<path d="M18.2466 8.69581C19.2492 9.27351 19.2492 10.7262 18.2466 11.3039L15.5453 12.8603L12.7812 10.086L15.6545 7.20215L18.2466 8.69581Z" fill="white"/>
<path d="M3.87109 1.1402C4.28601 0.947132 4.78959 0.940605 5.24252 1.20157L14.6995 6.65061L12.0302 9.32977L3.87109 1.1402Z" fill="white"/>
</svg>
