<svg width="56" height="56" viewBox="0 0 56 56" fill="none" xmlns="http://www.w3.org/2000/svg">
<path d="M27.6504 47.3447C27.502 47.3447 27.3164 47.3138 27.0938 47.252C26.8711 47.1901 26.6423 47.0973 26.4072 46.9736C23.7725 45.4893 21.5459 44.1719 19.7275 43.0215C17.9215 41.8711 16.4681 40.7578 15.3672 39.6816C14.2663 38.6055 13.4684 37.4427 12.9736 36.1934C12.4788 34.944 12.2314 33.472 12.2314 31.7773V17.583C12.2314 16.6058 12.4355 15.9069 12.8438 15.4863C13.2643 15.0534 13.8643 14.6761 14.6436 14.3545C15.0765 14.1689 15.6764 13.9277 16.4434 13.6309C17.2103 13.334 18.0576 13.0124 18.9854 12.666C19.9131 12.3197 20.8346 11.9795 21.75 11.6455C22.6777 11.2992 23.5251 10.9961 24.292 10.7363C25.0589 10.4642 25.665 10.2663 26.1104 10.1426C26.3577 10.0807 26.6113 10.0189 26.8711 9.95703C27.1309 9.89518 27.3906 9.86426 27.6504 9.86426C27.9102 9.86426 28.1699 9.89518 28.4297 9.95703C28.7018 10.0065 28.9616 10.0684 29.209 10.1426C29.6419 10.291 30.2419 10.5013 31.0088 10.7734C31.7757 11.0456 32.623 11.3486 33.5508 11.6826C34.4785 12.0166 35.4001 12.3568 36.3154 12.7031C37.2432 13.0371 38.0905 13.3525 38.8574 13.6494C39.6243 13.9339 40.2243 14.1689 40.6572 14.3545C41.4489 14.6885 42.0488 15.0658 42.457 15.4863C42.8652 15.9069 43.0693 16.6058 43.0693 17.583V31.7773C43.0693 33.472 42.8219 34.9502 42.3271 36.2119C41.8447 37.4613 41.0531 38.624 39.9521 39.7002C38.8512 40.7764 37.3916 41.8835 35.5732 43.0215C33.7673 44.1719 31.5407 45.4893 28.8936 46.9736C28.6585 47.0973 28.4297 47.1901 28.207 47.252C27.9844 47.3138 27.7988 47.3447 27.6504 47.3447ZM27.6504 43.9863C27.7988 43.9863 27.9596 43.9492 28.1328 43.875C28.306 43.8132 28.5286 43.7018 28.8008 43.541C30.9408 42.2422 32.7344 41.1227 34.1816 40.1826C35.6413 39.2425 36.804 38.3519 37.6699 37.5107C38.5482 36.6696 39.1729 35.748 39.5439 34.7461C39.9274 33.7441 40.1191 32.5257 40.1191 31.0908V18.1582C40.1191 17.849 40.0758 17.6139 39.9893 17.4531C39.915 17.2923 39.7542 17.1686 39.5068 17.082C38.9255 16.8841 38.2575 16.6553 37.5029 16.3955C36.7607 16.1234 35.9753 15.8389 35.1465 15.542C34.3301 15.2451 33.5075 14.9482 32.6787 14.6514C31.8623 14.3421 31.083 14.0514 30.3408 13.7793C29.5986 13.4948 28.9492 13.2412 28.3926 13.0186C28.2441 12.9567 28.1081 12.9134 27.9844 12.8887C27.8607 12.8639 27.7493 12.8516 27.6504 12.8516C27.5514 12.8516 27.4401 12.8639 27.3164 12.8887C27.1927 12.9134 27.0566 12.9567 26.9082 13.0186C26.3516 13.2412 25.7021 13.4886 24.96 13.7607C24.2178 14.0329 23.4323 14.3174 22.6035 14.6143C21.7747 14.8988 20.946 15.1895 20.1172 15.4863C19.2884 15.7832 18.5029 16.0677 17.7607 16.3398C17.0186 16.612 16.3691 16.8594 15.8125 17.082C15.5527 17.181 15.3796 17.3109 15.293 17.4717C15.2188 17.6201 15.1816 17.849 15.1816 18.1582V31.0908C15.1816 32.5257 15.3734 33.7441 15.7568 34.7461C16.1403 35.748 16.765 36.6758 17.6309 37.5293C18.4967 38.3704 19.6533 39.2611 21.1006 40.2012C22.5602 41.1289 24.36 42.2422 26.5 43.541C26.7721 43.7018 26.9948 43.8132 27.168 43.875C27.3411 43.9492 27.502 43.9863 27.6504 43.9863ZM25.6465 36.5088C25.3372 36.5088 25.0527 36.4408 24.793 36.3047C24.5456 36.1686 24.3044 35.9521 24.0693 35.6553L19.542 30.0889C19.2575 29.7054 19.1152 29.3219 19.1152 28.9385C19.1152 28.5303 19.2513 28.1839 19.5234 27.8994C19.8079 27.6025 20.1481 27.4541 20.5439 27.4541C20.8037 27.4541 21.0387 27.5098 21.249 27.6211C21.4717 27.7201 21.6943 27.918 21.917 28.2148L25.5723 32.9463L33.2725 20.5889C33.6188 20.0322 34.0518 19.7539 34.5713 19.7539C34.9548 19.7539 35.3011 19.8776 35.6104 20.125C35.9196 20.3724 36.0742 20.7002 36.0742 21.1084C36.0742 21.3187 36.0247 21.529 35.9258 21.7393C35.8392 21.9372 35.7402 22.1227 35.6289 22.2959L27.1494 35.6553C26.7783 36.2243 26.2773 36.5088 25.6465 36.5088Z" fill="#7A68BF" stroke="#7A68BF" stroke-width="8.96" stroke-linecap="round" stroke-linejoin="round"/>
<path d="M27.2401 10.03L26.6001 10.09L26.4801 10.21H26.1301L26.0201 10.33H25.6701L25.5501 10.44L24.6201 10.68L24.2701 10.91L22.6301 11.38L22.2801 11.61L21.3501 11.84L21.0001 12.08L20.4201 12.19L20.0701 12.43L19.1301 12.66L18.7801 12.89L18.2001 13.01L17.2701 13.48L16.6801 13.59L16.3301 13.83H16.1001L15.7501 14.06H15.5201L15.1701 14.29H14.9301L14.3501 14.64L13.8801 14.76L12.7801 15.63L12.4301 16.45V17.38L12.3101 17.5V31.73L12.4301 31.85V33.48L12.5401 33.6V34.3L12.6601 34.42V34.77L12.7801 34.88V35.23L12.8901 35.35L13.1301 36.28L13.7101 37.45L14.5301 38.62L16.2201 40.31H16.3301L17.8501 41.59L19.9501 42.99L20.3001 43.11L20.8801 43.58L21.2301 43.69L23.2201 44.98L23.8001 45.21L24.6201 45.79L25.4301 46.14L25.6701 46.38L26.8301 46.96H27.0701L27.1801 47.08H28.0001L28.1201 46.96L28.7001 46.84L29.1701 46.49L29.7501 46.26L29.9801 46.03L30.8001 45.68L31.0301 45.44L32.2001 44.86L32.4301 44.63L33.9501 43.81L34.5301 43.34L34.8801 43.23L35.4701 42.76L35.8201 42.64L36.8701 41.94L37.2201 41.59L37.6801 41.36L38.6201 40.54H38.7301L39.5501 39.73H39.6701L40.7801 38.5L41.4801 37.45L42.0601 36.28V36.05L42.4101 35.23V34.88L42.6401 34.3V33.6L42.7601 33.48V31.85L42.8801 31.73V17.5L42.7601 17.38V16.45L42.4101 15.63L41.6501 14.99L40.2501 14.29H40.0201L39.6701 14.06L39.0801 13.94L38.7301 13.71L38.1501 13.59L36.8701 13.01L35.9301 12.78L35.5801 12.54L35.0001 12.43L34.6501 12.19L33.7201 11.96L33.3701 11.73L32.4301 11.49L32.0801 11.26L30.8001 10.91L30.4501 10.68H30.2201L29.4001 10.33L28.7001 10.21L28.5801 10.09L27.3001 9.97998L27.2401 10.03Z" fill="#7A68BF"/>
<path d="M27.6504 47.3447C27.502 47.3447 27.3164 47.3138 27.0938 47.252C26.8711 47.1901 26.6423 47.0973 26.4072 46.9736C23.7725 45.4893 21.5459 44.1719 19.7275 43.0215C17.9215 41.8711 16.4681 40.7578 15.3672 39.6816C14.2663 38.6055 13.4684 37.4427 12.9736 36.1934C12.4788 34.944 12.2314 33.472 12.2314 31.7773V17.583C12.2314 16.6058 12.4355 15.9069 12.8438 15.4863C13.2643 15.0534 13.8643 14.6761 14.6436 14.3545C15.0765 14.1689 15.6764 13.9277 16.4434 13.6309C17.2103 13.334 18.0576 13.0124 18.9854 12.666C19.9131 12.3197 20.8346 11.9795 21.75 11.6455C22.6777 11.2992 23.5251 10.9961 24.292 10.7363C25.0589 10.4642 25.665 10.2663 26.1104 10.1426C26.3577 10.0807 26.6113 10.0189 26.8711 9.95703C27.1309 9.89518 27.3906 9.86426 27.6504 9.86426C27.9102 9.86426 28.1699 9.89518 28.4297 9.95703C28.7018 10.0065 28.9616 10.0684 29.209 10.1426C29.6419 10.291 30.2419 10.5013 31.0088 10.7734C31.7757 11.0456 32.623 11.3486 33.5508 11.6826C34.4785 12.0166 35.4001 12.3568 36.3154 12.7031C37.2432 13.0371 38.0905 13.3525 38.8574 13.6494C39.6243 13.9339 40.2243 14.1689 40.6572 14.3545C41.4489 14.6885 42.0488 15.0658 42.457 15.4863C42.8652 15.9069 43.0693 16.6058 43.0693 17.583V31.7773C43.0693 33.472 42.8219 34.9502 42.3271 36.2119C41.8447 37.4613 41.0531 38.624 39.9521 39.7002C38.8512 40.7764 37.3916 41.8835 35.5732 43.0215C33.7673 44.1719 31.5407 45.4893 28.8936 46.9736C28.6585 47.0973 28.4297 47.1901 28.207 47.252C27.9844 47.3138 27.7988 47.3447 27.6504 47.3447ZM27.6504 43.9863C27.7988 43.9863 27.9596 43.9492 28.1328 43.875C28.306 43.8132 28.5286 43.7018 28.8008 43.541C30.9408 42.2422 32.7344 41.1227 34.1816 40.1826C35.6413 39.2425 36.804 38.3519 37.6699 37.5107C38.5482 36.6696 39.1729 35.748 39.5439 34.7461C39.9274 33.7441 40.1191 32.5257 40.1191 31.0908V18.1582C40.1191 17.849 40.0758 17.6139 39.9893 17.4531C39.915 17.2923 39.7542 17.1686 39.5068 17.082C38.9255 16.8841 38.2575 16.6553 37.5029 16.3955C36.7607 16.1234 35.9753 15.8389 35.1465 15.542C34.3301 15.2451 33.5075 14.9482 32.6787 14.6514C31.8623 14.3421 31.083 14.0514 30.3408 13.7793C29.5986 13.4948 28.9492 13.2412 28.3926 13.0186C28.2441 12.9567 28.1081 12.9134 27.9844 12.8887C27.8607 12.8639 27.7493 12.8516 27.6504 12.8516C27.5514 12.8516 27.4401 12.8639 27.3164 12.8887C27.1927 12.9134 27.0566 12.9567 26.9082 13.0186C26.3516 13.2412 25.7021 13.4886 24.96 13.7607C24.2178 14.0329 23.4323 14.3174 22.6035 14.6143C21.7747 14.8988 20.946 15.1895 20.1172 15.4863C19.2884 15.7832 18.5029 16.0677 17.7607 16.3398C17.0186 16.612 16.3691 16.8594 15.8125 17.082C15.5527 17.181 15.3796 17.3109 15.293 17.4717C15.2188 17.6201 15.1816 17.849 15.1816 18.1582V31.0908C15.1816 32.5257 15.3734 33.7441 15.7568 34.7461C16.1403 35.748 16.765 36.6758 17.6309 37.5293C18.4967 38.3704 19.6533 39.2611 21.1006 40.2012C22.5602 41.1289 24.36 42.2422 26.5 43.541C26.7721 43.7018 26.9948 43.8132 27.168 43.875C27.3411 43.9492 27.502 43.9863 27.6504 43.9863ZM25.6465 36.5088C25.3372 36.5088 25.0527 36.4408 24.793 36.3047C24.5456 36.1686 24.3044 35.9521 24.0693 35.6553L19.542 30.0889C19.2575 29.7054 19.1152 29.3219 19.1152 28.9385C19.1152 28.5303 19.2513 28.1839 19.5234 27.8994C19.8079 27.6025 20.1481 27.4541 20.5439 27.4541C20.8037 27.4541 21.0387 27.5098 21.249 27.6211C21.4717 27.7201 21.6943 27.918 21.917 28.2148L25.5723 32.9463L33.2725 20.5889C33.6188 20.0322 34.0518 19.7539 34.5713 19.7539C34.9548 19.7539 35.3011 19.8776 35.6104 20.125C35.9196 20.3724 36.0742 20.7002 36.0742 21.1084C36.0742 21.3187 36.0247 21.529 35.9258 21.7393C35.8392 21.9372 35.7402 22.1227 35.6289 22.2959L27.1494 35.6553C26.7783 36.2243 26.2773 36.5088 25.6465 36.5088Z" fill="black"/>
</svg>
