<svg width="56" height="56" viewBox="0 0 56 56" fill="none" xmlns="http://www.w3.org/2000/svg">
<path d="M11.9863 39.1465C11.3535 38.7832 10.8613 38.2969 10.5098 37.6875C10.1582 37.0781 9.98242 36.4102 9.98242 35.6836V19.9336C9.98242 19.1953 10.1582 18.5215 10.5098 17.9121C10.8613 17.3027 11.3535 16.8164 11.9863 16.4531L25.627 8.5957C26.2598 8.2207 26.9219 8.0332 27.6133 8.0332C28.3164 8.0332 28.9902 8.2207 29.6348 8.5957L43.2578 16.4531C43.8906 16.8164 44.3828 17.3027 44.7344 17.9121C45.0859 18.5215 45.2617 19.1953 45.2617 19.9336V35.6836C45.2617 36.4102 45.0859 37.0781 44.7344 37.6875C44.3828 38.2969 43.8906 38.7832 43.2578 39.1465L29.6348 47.0391C28.9902 47.4141 28.3164 47.6016 27.6133 47.6016C26.9219 47.6016 26.2598 47.4141 25.627 47.0391L11.9863 39.1465ZM26.207 44.0859V29.2676L12.8125 21.6562V35.1738C12.8125 35.9473 13.1582 36.5391 13.8496 36.9492L25.9258 43.9277C25.9961 43.9746 26.043 44.0039 26.0664 44.0156C26.1016 44.0391 26.1484 44.0625 26.207 44.0859ZM27.6309 26.7539L41.5527 18.8262C41.4707 18.7324 41.3828 18.6562 41.2891 18.5977L28.6504 11.3027C27.9707 10.9043 27.2852 10.9043 26.5938 11.3027L13.9727 18.5977C13.8906 18.6445 13.832 18.6855 13.7969 18.7207C13.7734 18.7441 13.7383 18.7793 13.6914 18.8262L27.6309 26.7539ZM29.0371 44.0859C29.1191 44.0391 29.1777 44.0039 29.2129 43.9805C29.2598 43.9688 29.3301 43.9336 29.4238 43.875L41.4121 36.9492C42.0918 36.5391 42.4316 35.9473 42.4316 35.1738V21.6562L29.0371 29.2676V44.0859Z" fill="#BAC78D" stroke="#BAC78D" stroke-width="8.96" stroke-linecap="round" stroke-linejoin="round"/>
<path d="M27.4801 8.16986L26.7201 8.22986L25.3201 8.80986L24.5001 9.38986L23.9201 9.62986L23.6801 9.85986L23.1001 10.0899L22.8701 10.3299L20.8801 11.3799L20.6501 11.6099L20.0701 11.8399L19.8301 12.0799L19.2501 12.3099L19.0201 12.5399L17.0301 13.5899L16.8001 13.8299L16.2201 14.0599L15.9801 14.2899L15.4001 14.5299L15.1701 14.7599L14.5801 14.9899L13.7701 15.5799L11.7801 16.6299L11.4301 16.8599L10.6801 17.7299L10.3301 18.4299L10.2101 19.2499L10.0901 19.3699V36.1699L10.2101 36.2799V36.6299L10.5601 37.5699L10.7901 37.9199L11.9001 38.9099L13.6501 39.8399L13.8801 40.0699L14.4701 40.3099L15.2801 40.8899L15.8701 41.1299L16.1001 41.3599L16.6801 41.5899L16.9201 41.8299L18.0801 42.4099L18.3201 42.6399L18.9001 42.8799L19.1301 43.1099L20.3001 43.6899L20.5301 43.9299L21.1201 44.1599L21.9301 44.7399L24.1501 45.9099L24.9701 46.4899L26.3701 47.1899H26.7201L26.8301 47.3099H28.3501L28.4701 47.1899H28.8201L29.9801 46.6099L30.2201 46.3799L31.6201 45.6799L31.8501 45.4399L33.0201 44.8599L33.8301 44.2799L34.4201 44.0399L34.6501 43.8099L35.2301 43.5799L36.0501 42.9899L36.6301 42.7599L36.8701 42.5299L37.4501 42.2899L38.2701 41.7099L38.8501 41.4799L39.0801 41.2399L39.6701 41.0099L40.4801 40.4299L41.0701 40.1899L41.3001 39.9599L41.8801 39.7299L42.7001 39.1399L43.2801 38.9099L43.6301 38.6799L44.5101 37.6799L44.9801 36.3999V19.0199L44.3901 17.6199L43.5201 16.7399L41.7701 15.8099L41.5301 15.5799L40.9501 15.3399L40.7201 15.1099L40.1301 14.8799L39.9001 14.6399L38.7301 14.0599L38.5001 13.8299L37.9201 13.5899L37.6801 13.3599L37.1001 13.1299L36.2801 12.5399L34.8801 11.8399L34.6501 11.6099L34.0701 11.3799L33.2501 10.7899L31.8501 10.0899L31.6201 9.85986L31.0301 9.62986L30.8001 9.38986L30.2201 9.15986L29.9801 8.91986L28.8201 8.33986H28.5801L28.4701 8.22986H27.6501L27.5301 8.10986L27.4801 8.16986Z" fill="#BAC78D"/>
<path d="M11.9863 39.1465C11.3535 38.7832 10.8613 38.2969 10.5098 37.6875C10.1582 37.0781 9.98242 36.4102 9.98242 35.6836V19.9336C9.98242 19.1953 10.1582 18.5215 10.5098 17.9121C10.8613 17.3027 11.3535 16.8164 11.9863 16.4531L25.627 8.5957C26.2598 8.2207 26.9219 8.0332 27.6133 8.0332C28.3164 8.0332 28.9902 8.2207 29.6348 8.5957L43.2578 16.4531C43.8906 16.8164 44.3828 17.3027 44.7344 17.9121C45.0859 18.5215 45.2617 19.1953 45.2617 19.9336V35.6836C45.2617 36.4102 45.0859 37.0781 44.7344 37.6875C44.3828 38.2969 43.8906 38.7832 43.2578 39.1465L29.6348 47.0391C28.9902 47.4141 28.3164 47.6016 27.6133 47.6016C26.9219 47.6016 26.2598 47.4141 25.627 47.0391L11.9863 39.1465ZM26.207 44.0859V29.2676L12.8125 21.6562V35.1738C12.8125 35.9473 13.1582 36.5391 13.8496 36.9492L25.9258 43.9277C25.9961 43.9746 26.043 44.0039 26.0664 44.0156C26.1016 44.0391 26.1484 44.0625 26.207 44.0859ZM27.6309 26.7539L41.5527 18.8262C41.4707 18.7324 41.3828 18.6562 41.2891 18.5977L28.6504 11.3027C27.9707 10.9043 27.2852 10.9043 26.5938 11.3027L13.9727 18.5977C13.8906 18.6445 13.832 18.6855 13.7969 18.7207C13.7734 18.7441 13.7383 18.7793 13.6914 18.8262L27.6309 26.7539ZM29.0371 44.0859C29.1191 44.0391 29.1777 44.0039 29.2129 43.9805C29.2598 43.9688 29.3301 43.9336 29.4238 43.875L41.4121 36.9492C42.0918 36.5391 42.4316 35.9473 42.4316 35.1738V21.6562L29.0371 29.2676V44.0859Z" fill="black"/>
</svg>
