<svg width="56" height="56" viewBox="0 0 56 56" fill="none" xmlns="http://www.w3.org/2000/svg">
<path d="M15.3145 21.252C14.8809 21.252 14.5 21.0879 14.1719 20.7598C13.8438 20.4316 13.6797 20.0508 13.6797 19.6172C13.6797 19.1719 13.8438 18.791 14.1719 18.4746C14.5 18.1465 14.8809 17.9824 15.3145 17.9824C15.7715 17.9824 16.1582 18.1406 16.4746 18.457C16.791 18.7734 16.9492 19.1602 16.9492 19.6172C16.9492 20.0625 16.791 20.4492 16.4746 20.7773C16.1582 21.0938 15.7715 21.252 15.3145 21.252ZM15.3145 26.6309C14.8809 26.6309 14.5 26.4727 14.1719 26.1562C13.8438 25.8281 13.6797 25.4414 13.6797 24.9961C13.6797 24.5508 13.8438 24.1699 14.1719 23.8535C14.5 23.5254 14.8809 23.3613 15.3145 23.3613C15.7715 23.3613 16.1582 23.5195 16.4746 23.8359C16.791 24.1523 16.9492 24.5391 16.9492 24.9961C16.9492 25.4531 16.791 25.8398 16.4746 26.1562C16.1582 26.4727 15.7715 26.6309 15.3145 26.6309ZM15.3145 31.9922C14.8691 31.9922 14.4824 31.834 14.1543 31.5176C13.8379 31.2012 13.6797 30.8145 13.6797 30.3574C13.6797 29.9121 13.8379 29.5312 14.1543 29.2148C14.4824 28.8984 14.8691 28.7402 15.3145 28.7402C15.7715 28.7402 16.1582 28.8984 16.4746 29.2148C16.791 29.5312 16.9492 29.9121 16.9492 30.3574C16.9492 30.8145 16.791 31.2012 16.4746 31.5176C16.1582 31.834 15.7715 31.9922 15.3145 31.9922ZM15.3145 37.6348C14.8809 37.6348 14.5 37.4707 14.1719 37.1426C13.8438 36.8145 13.6797 36.4336 13.6797 36C13.6797 35.5547 13.8438 35.168 14.1719 34.8398C14.5 34.5117 14.8809 34.3477 15.3145 34.3477C15.7715 34.3477 16.1582 34.5117 16.4746 34.8398C16.791 35.1562 16.9492 35.543 16.9492 36C16.9492 36.4453 16.791 36.832 16.4746 37.1602C16.1582 37.4766 15.7715 37.6348 15.3145 37.6348ZM20.623 20.6895C20.3066 20.6895 20.043 20.584 19.832 20.373C19.6211 20.1621 19.5156 19.9102 19.5156 19.6172C19.5156 19.3125 19.6211 19.0547 19.832 18.8438C20.0547 18.6211 20.3184 18.5098 20.623 18.5098H40.7324C41.0371 18.5098 41.2949 18.6211 41.5059 18.8438C41.7285 19.0547 41.8398 19.3125 41.8398 19.6172C41.8398 19.9102 41.7344 20.1621 41.5234 20.373C41.3125 20.584 41.0488 20.6895 40.7324 20.6895H20.623ZM20.623 26.0859C20.3184 26.0859 20.0547 25.9805 19.832 25.7695C19.6211 25.5586 19.5156 25.3008 19.5156 24.9961C19.5156 24.6914 19.6211 24.4336 19.832 24.2227C20.0547 24 20.3184 23.8887 20.623 23.8887H31.7676C32.0723 23.8887 32.3301 24 32.541 24.2227C32.752 24.4336 32.8574 24.6914 32.8574 24.9961C32.8574 25.3008 32.752 25.5586 32.541 25.7695C32.3301 25.9805 32.0723 26.0859 31.7676 26.0859H20.623ZM20.623 31.4648C20.3066 31.4648 20.043 31.3594 19.832 31.1484C19.6211 30.9375 19.5156 30.6738 19.5156 30.3574C19.5156 30.0645 19.6211 29.8125 19.832 29.6016C20.043 29.3906 20.3066 29.2852 20.623 29.2852H40.7324C41.0488 29.2852 41.3125 29.3906 41.5234 29.6016C41.7344 29.8125 41.8398 30.0645 41.8398 30.3574C41.8398 30.6738 41.7344 30.9375 41.5234 31.1484C41.3125 31.3594 41.0488 31.4648 40.7324 31.4648H20.623ZM20.623 37.0898C20.3184 37.0898 20.0547 36.9844 19.832 36.7734C19.6211 36.5508 19.5156 36.293 19.5156 36C19.5156 35.6953 19.6211 35.4375 19.832 35.2266C20.043 35.0156 20.3066 34.9102 20.623 34.9102H31.7676C32.0723 34.9102 32.3301 35.0156 32.541 35.2266C32.752 35.4375 32.8574 35.6953 32.8574 36C32.8574 36.293 32.752 36.5508 32.541 36.7734C32.3301 36.9844 32.0723 37.0898 31.7676 37.0898H20.623ZM12.502 43.998C10.6621 43.998 9.2793 43.541 8.35352 42.627C7.43945 41.7246 6.98242 40.3711 6.98242 38.5664V17.0859C6.98242 15.2695 7.43945 13.9102 8.35352 13.0078C9.2793 12.0938 10.6621 11.6367 12.502 11.6367H42.9121C44.7637 11.6367 46.1465 12.0938 47.0605 13.0078C47.9746 13.9219 48.4316 15.2812 48.4316 17.0859V38.5664C48.4316 40.3711 47.9746 41.7246 47.0605 42.627C46.1465 43.541 44.7637 43.998 42.9121 43.998H12.502ZM12.5371 41.168H42.877C43.7441 41.168 44.4121 40.9395 44.8809 40.4824C45.3613 40.0137 45.6016 39.3223 45.6016 38.4082V17.2441C45.6016 16.3301 45.3613 15.6387 44.8809 15.1699C44.4121 14.7012 43.7441 14.4668 42.877 14.4668H12.5371C11.6582 14.4668 10.9844 14.7012 10.5156 15.1699C10.0469 15.6387 9.8125 16.3301 9.8125 17.2441V38.4082C9.8125 39.3223 10.0469 40.0137 10.5156 40.4824C10.9844 40.9395 11.6582 41.168 12.5371 41.168Z" fill="#FFD15C" stroke="#FFD15C" stroke-width="8.96" stroke-linecap="round" stroke-linejoin="round"/>
<path d="M11.9601 11.78L10.3801 11.96L10.2701 12.08L9.68006 12.19L8.63006 12.78L7.88006 13.65L7.53006 14.35V14.58L7.29006 15.05V15.52L7.17006 15.63V16.92L7.06006 17.03V38.62L7.17006 38.73V39.9L7.29006 40.02V40.48L7.41006 40.6L7.53006 41.18L7.88006 41.88L8.40006 42.53L9.45006 43.23H9.68006L10.0301 43.46H10.3801L10.5001 43.58H10.9701L11.0801 43.69H44.3301L44.4501 43.58H44.8001L44.9201 43.46H45.2701L45.6201 43.23H45.8501L47.0801 42.35L47.5401 41.65L47.6601 41.18L47.8901 40.83V40.48L48.1301 39.9V38.62L48.2401 38.5V17.03L48.1301 16.92V15.63L48.0101 15.52V15.05L47.7801 14.58V14.35L47.1901 13.3L46.7801 12.89L45.6201 12.19H45.3801L44.9201 11.96H44.4501L44.3301 11.84H43.4001L43.2801 11.73H12.0201L11.9601 11.78Z" fill="#FFD15C"/>
<path d="M15.3145 21.252C14.8809 21.252 14.5 21.0879 14.1719 20.7598C13.8438 20.4316 13.6797 20.0508 13.6797 19.6172C13.6797 19.1719 13.8438 18.791 14.1719 18.4746C14.5 18.1465 14.8809 17.9824 15.3145 17.9824C15.7715 17.9824 16.1582 18.1406 16.4746 18.457C16.791 18.7734 16.9492 19.1602 16.9492 19.6172C16.9492 20.0625 16.791 20.4492 16.4746 20.7773C16.1582 21.0938 15.7715 21.252 15.3145 21.252ZM15.3145 26.6309C14.8809 26.6309 14.5 26.4727 14.1719 26.1562C13.8438 25.8281 13.6797 25.4414 13.6797 24.9961C13.6797 24.5508 13.8438 24.1699 14.1719 23.8535C14.5 23.5254 14.8809 23.3613 15.3145 23.3613C15.7715 23.3613 16.1582 23.5195 16.4746 23.8359C16.791 24.1523 16.9492 24.5391 16.9492 24.9961C16.9492 25.4531 16.791 25.8398 16.4746 26.1562C16.1582 26.4727 15.7715 26.6309 15.3145 26.6309ZM15.3145 31.9922C14.8691 31.9922 14.4824 31.834 14.1543 31.5176C13.8379 31.2012 13.6797 30.8145 13.6797 30.3574C13.6797 29.9121 13.8379 29.5312 14.1543 29.2148C14.4824 28.8984 14.8691 28.7402 15.3145 28.7402C15.7715 28.7402 16.1582 28.8984 16.4746 29.2148C16.791 29.5312 16.9492 29.9121 16.9492 30.3574C16.9492 30.8145 16.791 31.2012 16.4746 31.5176C16.1582 31.834 15.7715 31.9922 15.3145 31.9922ZM15.3145 37.6348C14.8809 37.6348 14.5 37.4707 14.1719 37.1426C13.8438 36.8145 13.6797 36.4336 13.6797 36C13.6797 35.5547 13.8438 35.168 14.1719 34.8398C14.5 34.5117 14.8809 34.3477 15.3145 34.3477C15.7715 34.3477 16.1582 34.5117 16.4746 34.8398C16.791 35.1562 16.9492 35.543 16.9492 36C16.9492 36.4453 16.791 36.832 16.4746 37.1602C16.1582 37.4766 15.7715 37.6348 15.3145 37.6348ZM20.623 20.6895C20.3066 20.6895 20.043 20.584 19.832 20.373C19.6211 20.1621 19.5156 19.9102 19.5156 19.6172C19.5156 19.3125 19.6211 19.0547 19.832 18.8438C20.0547 18.6211 20.3184 18.5098 20.623 18.5098H40.7324C41.0371 18.5098 41.2949 18.6211 41.5059 18.8438C41.7285 19.0547 41.8398 19.3125 41.8398 19.6172C41.8398 19.9102 41.7344 20.1621 41.5234 20.373C41.3125 20.584 41.0488 20.6895 40.7324 20.6895H20.623ZM20.623 26.0859C20.3184 26.0859 20.0547 25.9805 19.832 25.7695C19.6211 25.5586 19.5156 25.3008 19.5156 24.9961C19.5156 24.6914 19.6211 24.4336 19.832 24.2227C20.0547 24 20.3184 23.8887 20.623 23.8887H31.7676C32.0723 23.8887 32.3301 24 32.541 24.2227C32.752 24.4336 32.8574 24.6914 32.8574 24.9961C32.8574 25.3008 32.752 25.5586 32.541 25.7695C32.3301 25.9805 32.0723 26.0859 31.7676 26.0859H20.623ZM20.623 31.4648C20.3066 31.4648 20.043 31.3594 19.832 31.1484C19.6211 30.9375 19.5156 30.6738 19.5156 30.3574C19.5156 30.0645 19.6211 29.8125 19.832 29.6016C20.043 29.3906 20.3066 29.2852 20.623 29.2852H40.7324C41.0488 29.2852 41.3125 29.3906 41.5234 29.6016C41.7344 29.8125 41.8398 30.0645 41.8398 30.3574C41.8398 30.6738 41.7344 30.9375 41.5234 31.1484C41.3125 31.3594 41.0488 31.4648 40.7324 31.4648H20.623ZM20.623 37.0898C20.3184 37.0898 20.0547 36.9844 19.832 36.7734C19.6211 36.5508 19.5156 36.293 19.5156 36C19.5156 35.6953 19.6211 35.4375 19.832 35.2266C20.043 35.0156 20.3066 34.9102 20.623 34.9102H31.7676C32.0723 34.9102 32.3301 35.0156 32.541 35.2266C32.752 35.4375 32.8574 35.6953 32.8574 36C32.8574 36.293 32.752 36.5508 32.541 36.7734C32.3301 36.9844 32.0723 37.0898 31.7676 37.0898H20.623ZM12.502 43.998C10.6621 43.998 9.2793 43.541 8.35352 42.627C7.43945 41.7246 6.98242 40.3711 6.98242 38.5664V17.0859C6.98242 15.2695 7.43945 13.9102 8.35352 13.0078C9.2793 12.0938 10.6621 11.6367 12.502 11.6367H42.9121C44.7637 11.6367 46.1465 12.0938 47.0605 13.0078C47.9746 13.9219 48.4316 15.2812 48.4316 17.0859V38.5664C48.4316 40.3711 47.9746 41.7246 47.0605 42.627C46.1465 43.541 44.7637 43.998 42.9121 43.998H12.502ZM12.5371 41.168H42.877C43.7441 41.168 44.4121 40.9395 44.8809 40.4824C45.3613 40.0137 45.6016 39.3223 45.6016 38.4082V17.2441C45.6016 16.3301 45.3613 15.6387 44.8809 15.1699C44.4121 14.7012 43.7441 14.4668 42.877 14.4668H12.5371C11.6582 14.4668 10.9844 14.7012 10.5156 15.1699C10.0469 15.6387 9.8125 16.3301 9.8125 17.2441V38.4082C9.8125 39.3223 10.0469 40.0137 10.5156 40.4824C10.9844 40.9395 11.6582 41.168 12.5371 41.168Z" fill="black"/>
</svg>
