<svg width="56" height="56" viewBox="0 0 56 56" fill="none" xmlns="http://www.w3.org/2000/svg">
<path d="M16.9629 42.9785C15.3926 42.9785 14.2324 42.6035 13.4824 41.8535C12.7324 41.1035 12.3574 39.9434 12.3574 38.373V34.5762C12.3574 34.2246 12.2402 33.9258 12.0059 33.6797L9.31641 30.9727C8.20312 29.8711 7.64648 28.793 7.64648 27.7383C7.64648 26.6836 8.20312 25.5996 9.31641 24.4863L12.0059 21.7793C12.2402 21.5332 12.3574 21.2402 12.3574 20.9004V17.0859C12.3574 15.5039 12.7324 14.3438 13.4824 13.6055C14.2324 12.8555 15.3926 12.4805 16.9629 12.4805H20.7598C21.123 12.4805 21.4219 12.3633 21.6562 12.1289L24.3633 9.43945C25.4766 8.32617 26.5547 7.76953 27.5977 7.76953C28.6523 7.76953 29.7363 8.32617 30.8496 9.43945L33.5566 12.1289C33.8027 12.3633 34.1016 12.4805 34.4531 12.4805H38.25C39.832 12.4805 40.9922 12.8613 41.7305 13.623C42.4805 14.373 42.8555 15.5273 42.8555 17.0859V20.9004C42.8555 21.2402 42.9785 21.5332 43.2246 21.7793L45.8965 24.4863C47.0098 25.5996 47.5664 26.6836 47.5664 27.7383C47.5781 28.793 47.0215 29.8711 45.8965 30.9727L43.2246 33.6797C42.9785 33.9258 42.8555 34.2246 42.8555 34.5762V38.373C42.8555 39.9551 42.4805 41.1152 41.7305 41.8535C40.9805 42.6035 39.8203 42.9785 38.25 42.9785H34.4531C34.1016 42.9785 33.8027 43.1016 33.5566 43.3477L30.8496 46.0371C29.7363 47.1387 28.6523 47.6895 27.5977 47.6895C26.5547 47.7012 25.4766 47.1504 24.3633 46.0371L21.6562 43.3477C21.4219 43.1016 21.123 42.9785 20.7598 42.9785H16.9629ZM16.9629 40.1836H21.6914C22.2305 40.1836 22.6758 40.3711 23.0273 40.7461L26.332 44.0684C26.8945 44.6191 27.3164 44.8945 27.5977 44.8945C27.8906 44.8945 28.3184 44.6191 28.8809 44.0684L32.2031 40.7461C32.5547 40.3711 32.9941 40.1836 33.5215 40.1836H38.25C39.0352 40.1836 39.5332 40.0781 39.7441 39.8672C39.9551 39.6562 40.0605 39.1582 40.0605 38.373V33.6445C40.0605 33.1289 40.248 32.6895 40.623 32.3262L43.9453 29.0215C44.4961 28.459 44.7715 28.0312 44.7715 27.7383C44.7715 27.4453 44.4961 27.0176 43.9453 26.4551L40.623 23.1504C40.248 22.7754 40.0605 22.3301 40.0605 21.8145V17.0859C40.0605 16.3125 39.9551 15.8203 39.7441 15.6094C39.5332 15.3867 39.0352 15.2754 38.25 15.2754H33.5215C32.9941 15.2754 32.5547 15.0938 32.2031 14.7305L28.8809 11.4082C28.3184 10.8574 27.8906 10.582 27.5977 10.582C27.3164 10.582 26.8945 10.8574 26.332 11.4082L23.0273 14.7305C22.6758 15.0938 22.2305 15.2754 21.6914 15.2754H16.9629C16.166 15.2754 15.6621 15.3809 15.4512 15.5918C15.252 15.8027 15.1523 16.3008 15.1523 17.0859V21.8145C15.1523 22.3301 14.9707 22.7754 14.6074 23.1504L11.2852 26.4551C10.7227 27.0176 10.4414 27.4453 10.4414 27.7383C10.4414 28.0312 10.7227 28.459 11.2852 29.0215L14.6074 32.3262C14.9707 32.6895 15.1523 33.1289 15.1523 33.6445V38.373C15.1523 39.1582 15.2578 39.6562 15.4688 39.8672C15.6797 40.0781 16.1777 40.1836 16.9629 40.1836ZM25.6992 36.0703C25.4062 36.0703 25.1367 36.0059 24.8906 35.877C24.6562 35.748 24.4277 35.543 24.2051 35.2617L19.916 29.9883C19.6465 29.625 19.5117 29.2617 19.5117 28.8984C19.5117 28.5117 19.6406 28.1836 19.8984 27.9141C20.168 27.6328 20.4902 27.4922 20.8652 27.4922C21.1113 27.4922 21.334 27.5449 21.5332 27.6504C21.7441 27.7441 21.9551 27.9316 22.166 28.2129L25.6289 32.6953L32.9238 20.9883C33.252 20.4609 33.6621 20.1973 34.1543 20.1973C34.5176 20.1973 34.8457 20.3145 35.1387 20.5488C35.4316 20.7832 35.5781 21.0938 35.5781 21.4805C35.5781 21.6797 35.5312 21.8789 35.4375 22.0781C35.3555 22.2656 35.2617 22.4414 35.1562 22.6055L27.123 35.2617C26.7715 35.8008 26.2969 36.0703 25.6992 36.0703Z" fill="#F36440" stroke="#F36440" stroke-width="8.96" stroke-linecap="round" stroke-linejoin="round"/>
<path d="M27.24 7.92988L26.37 8.10988L24.97 8.91988L21.58 12.3099L21.23 12.5399H20.77L20.65 12.6599H15.75L15.63 12.7799H15.17L14.7 13.0099H14.47L13.48 13.6499L12.89 14.5799V14.8199L12.66 15.2799V15.7499L12.54 15.8699V20.8799L12.43 20.9999V21.3499L12.19 21.6999L8.81001 25.0799L7.99001 26.4799L7.88001 27.2999L7.76001 27.4199V27.8799L7.88001 27.9999V28.5799L8.11001 28.9299V29.1699L8.69001 30.0999L12.31 33.8299L12.43 34.0699V34.4199L12.54 34.5299V39.5499L12.66 39.6699L12.78 40.4799L13.13 41.1799L13.65 41.8299L14.7 42.4099L15.4 42.5299L15.52 42.6399H16.33L16.45 42.7599H21.12L21.35 42.8799L25.2 46.6099L26.25 47.1899H26.48L26.95 47.4299H28.12L28.23 47.3099L29.17 47.0799L30.33 46.2599L33.6 42.9899L34.07 42.7599H38.62L38.73 42.6399H39.55L39.67 42.5299H40.13L40.48 42.2899L40.95 42.1799L41.83 41.4199L42.41 40.2499V39.7799L42.53 39.6699V38.7299L42.64 38.6199V34.0699L42.88 33.7199L46.03 30.5699V30.4499L46.49 29.9799L47.19 28.5799V28.2299L47.31 28.1199V27.1799L47.19 27.0699L47.08 26.3699L46.38 25.1999L42.76 21.4699L42.64 21.2299V16.6799L42.53 16.5699V15.6299L42.41 15.5199L42.29 14.8199L41.94 14.1199L41.53 13.5899L40.6 13.0099H40.37L39.9 12.7799H39.55L39.43 12.6599H34.42L34.3 12.5399H33.95L33.72 12.4299L29.98 8.80988L28.7 8.10988L27.88 7.98988L27.77 7.87988H27.3L27.24 7.92988Z" fill="#F36440"/>
<path d="M16.9629 42.9785C15.3926 42.9785 14.2324 42.6035 13.4824 41.8535C12.7324 41.1035 12.3574 39.9434 12.3574 38.373V34.5762C12.3574 34.2246 12.2402 33.9258 12.0059 33.6797L9.31641 30.9727C8.20312 29.8711 7.64648 28.793 7.64648 27.7383C7.64648 26.6836 8.20312 25.5996 9.31641 24.4863L12.0059 21.7793C12.2402 21.5332 12.3574 21.2402 12.3574 20.9004V17.0859C12.3574 15.5039 12.7324 14.3438 13.4824 13.6055C14.2324 12.8555 15.3926 12.4805 16.9629 12.4805H20.7598C21.123 12.4805 21.4219 12.3633 21.6562 12.1289L24.3633 9.43945C25.4766 8.32617 26.5547 7.76953 27.5977 7.76953C28.6523 7.76953 29.7363 8.32617 30.8496 9.43945L33.5566 12.1289C33.8027 12.3633 34.1016 12.4805 34.4531 12.4805H38.25C39.832 12.4805 40.9922 12.8613 41.7305 13.623C42.4805 14.373 42.8555 15.5273 42.8555 17.0859V20.9004C42.8555 21.2402 42.9785 21.5332 43.2246 21.7793L45.8965 24.4863C47.0098 25.5996 47.5664 26.6836 47.5664 27.7383C47.5781 28.793 47.0215 29.8711 45.8965 30.9727L43.2246 33.6797C42.9785 33.9258 42.8555 34.2246 42.8555 34.5762V38.373C42.8555 39.9551 42.4805 41.1152 41.7305 41.8535C40.9805 42.6035 39.8203 42.9785 38.25 42.9785H34.4531C34.1016 42.9785 33.8027 43.1016 33.5566 43.3477L30.8496 46.0371C29.7363 47.1387 28.6523 47.6895 27.5977 47.6895C26.5547 47.7012 25.4766 47.1504 24.3633 46.0371L21.6562 43.3477C21.4219 43.1016 21.123 42.9785 20.7598 42.9785H16.9629ZM16.9629 40.1836H21.6914C22.2305 40.1836 22.6758 40.3711 23.0273 40.7461L26.332 44.0684C26.8945 44.6191 27.3164 44.8945 27.5977 44.8945C27.8906 44.8945 28.3184 44.6191 28.8809 44.0684L32.2031 40.7461C32.5547 40.3711 32.9941 40.1836 33.5215 40.1836H38.25C39.0352 40.1836 39.5332 40.0781 39.7441 39.8672C39.9551 39.6562 40.0605 39.1582 40.0605 38.373V33.6445C40.0605 33.1289 40.248 32.6895 40.623 32.3262L43.9453 29.0215C44.4961 28.459 44.7715 28.0312 44.7715 27.7383C44.7715 27.4453 44.4961 27.0176 43.9453 26.4551L40.623 23.1504C40.248 22.7754 40.0605 22.3301 40.0605 21.8145V17.0859C40.0605 16.3125 39.9551 15.8203 39.7441 15.6094C39.5332 15.3867 39.0352 15.2754 38.25 15.2754H33.5215C32.9941 15.2754 32.5547 15.0938 32.2031 14.7305L28.8809 11.4082C28.3184 10.8574 27.8906 10.582 27.5977 10.582C27.3164 10.582 26.8945 10.8574 26.332 11.4082L23.0273 14.7305C22.6758 15.0938 22.2305 15.2754 21.6914 15.2754H16.9629C16.166 15.2754 15.6621 15.3809 15.4512 15.5918C15.252 15.8027 15.1523 16.3008 15.1523 17.0859V21.8145C15.1523 22.3301 14.9707 22.7754 14.6074 23.1504L11.2852 26.4551C10.7227 27.0176 10.4414 27.4453 10.4414 27.7383C10.4414 28.0312 10.7227 28.459 11.2852 29.0215L14.6074 32.3262C14.9707 32.6895 15.1523 33.1289 15.1523 33.6445V38.373C15.1523 39.1582 15.2578 39.6562 15.4688 39.8672C15.6797 40.0781 16.1777 40.1836 16.9629 40.1836ZM25.6992 36.0703C25.4062 36.0703 25.1367 36.0059 24.8906 35.877C24.6562 35.748 24.4277 35.543 24.2051 35.2617L19.916 29.9883C19.6465 29.625 19.5117 29.2617 19.5117 28.8984C19.5117 28.5117 19.6406 28.1836 19.8984 27.9141C20.168 27.6328 20.4902 27.4922 20.8652 27.4922C21.1113 27.4922 21.334 27.5449 21.5332 27.6504C21.7441 27.7441 21.9551 27.9316 22.166 28.2129L25.6289 32.6953L32.9238 20.9883C33.252 20.4609 33.6621 20.1973 34.1543 20.1973C34.5176 20.1973 34.8457 20.3145 35.1387 20.5488C35.4316 20.7832 35.5781 21.0938 35.5781 21.4805C35.5781 21.6797 35.5312 21.8789 35.4375 22.0781C35.3555 22.2656 35.2617 22.4414 35.1562 22.6055L27.123 35.2617C26.7715 35.8008 26.2969 36.0703 25.6992 36.0703Z" fill="black"/>
</svg>
