<svg width="20" height="20" viewBox="0 0 20 20" fill="none" xmlns="http://www.w3.org/2000/svg">
<path d="M18.5 17.739C18.5 17.8591 18.395 17.9521 18.2758 17.9376L10.2452 16.9599C10.1448 16.9477 10.0693 16.8625 10.0693 16.7613V10.7742C10.0693 10.6638 10.1589 10.5742 10.2693 10.5742H18.3C18.4105 10.5742 18.5 10.6638 18.5 10.7742V17.739ZM8.88672 16.5681C8.88672 16.6882 8.78173 16.7812 8.66257 16.7667L1.67585 15.9169C1.57547 15.9047 1.5 15.8195 1.5 15.7184V10.7742C1.5 10.6638 1.58954 10.5742 1.7 10.5742H8.68672C8.79718 10.5742 8.88672 10.6638 8.88672 10.7742V16.5681ZM8.88672 9.1916C8.88672 9.30206 8.79718 9.3916 8.68672 9.3916H1.7C1.58954 9.3916 1.5 9.30206 1.5 9.1916V4.24646C1.5 4.14535 1.57546 4.06015 1.67583 4.04793L8.66255 3.19722C8.78171 3.18271 8.88672 3.27571 8.88672 3.39575V9.1916ZM18.5 9.1916C18.5 9.30206 18.4105 9.3916 18.3 9.3916H10.2693C10.1589 9.3916 10.0693 9.30206 10.0693 9.1916V3.20254C10.0693 3.10142 10.1448 3.01621 10.2452 3.004L18.2759 2.02726C18.395 2.01277 18.5 2.10577 18.5 2.2258V9.1916Z" fill="white"/>
</svg>
