<svg width="260" height="64" viewBox="0 0 260 64" fill="none" xmlns="http://www.w3.org/2000/svg">
<path d="M13.1226 35.2327C13.4222 35.2225 13.6966 35.3042 13.9498 35.4583C14.4442 35.7595 14.8732 36.3416 15.3199 37.0569C16.2272 38.51 17.2688 40.6131 19.1441 42.6633C21.4502 45.1842 24.5008 46.1532 28.1646 46.1985C31.8351 46.2437 36.1013 45.362 40.8111 44.2014C45.0228 43.1638 48.7124 43.6461 50.7974 44.6712C51.8278 45.1779 52.5245 45.8488 52.6197 46.5833C52.7181 47.3465 52.1602 48.0434 51.0191 48.5715C49.8128 49.1296 48.2913 49.3742 46.6949 49.4846C45.0974 49.5951 43.3995 49.5724 41.8424 49.5852C40.277 49.5981 38.8578 49.6472 37.7877 49.8938C36.7105 50.1422 36.0641 50.5723 35.9078 51.2854C35.7859 51.8424 35.9246 52.2823 36.2603 52.6526C36.6058 53.0333 37.1677 53.3484 37.9 53.6126C39.3647 54.1408 41.4208 54.4393 43.5152 54.7307C45.5961 55.0203 47.7165 55.3036 49.2681 55.8098C50.0432 56.0628 50.7001 56.3779 51.1402 56.7942C51.5894 57.2193 51.8134 57.7516 51.7115 58.4026C51.6314 58.9131 51.33 59.3342 50.8824 59.6751C50.4369 60.0141 49.8366 60.2823 49.1324 60.4924C47.7233 60.9128 45.8502 61.1165 43.8336 61.1741C39.797 61.2893 35.1288 60.8201 32.3091 60.2864C25.5048 58.9981 18.3929 55.2944 14.2427 48.0315C12.7191 45.3649 11.6812 42.5704 11.275 40.2913C11.0721 39.1527 11.0245 38.1315 11.1597 37.3157C11.2945 36.5033 11.6171 35.8599 12.1851 35.5335C12.5151 35.344 12.8254 35.243 13.1226 35.2327Z" fill="#0E0807"/>
<path d="M114.418 13.0423C122.814 13.1498 127.216 15.5417 129.507 18.1653C130.15 18.9016 130.624 19.652 130.971 20.3694C131.048 20.5288 131.12 20.6865 131.185 20.8421C131.87 22.4761 131.924 23.8717 131.906 24.4231C131.879 25.2393 131.783 27.4186 130.328 29.7542C128.964 31.9432 126.424 34.2399 121.702 35.6975C122.992 36.0456 124.562 36.7 125.932 37.7522C127.708 39.1161 129.159 41.1578 129.203 44.0559C129.257 47.6743 127.141 51.1061 122.881 53.4241C118.671 55.7152 112.355 56.9283 103.898 56.2005C103.858 56.6402 103.757 57.1173 103.438 57.4973C103.04 57.9712 102.36 58.2324 101.262 58.2073C100.078 58.1802 98.9243 57.977 98.0718 57.469C97.6421 57.2128 97.2837 56.876 97.0416 56.4417C96.7991 56.0066 96.6811 55.4887 96.7095 54.885C96.8169 52.6149 98.4645 41.0164 102.862 24.7903C102.954 23.9914 103.676 22.4464 105.794 22.1741C107.044 22.0134 108.385 21.9529 109.357 22.1995C109.843 22.3228 110.276 22.5325 110.546 22.8831C110.827 23.2471 110.896 23.7161 110.748 24.2698C110.223 26.2231 106.324 41.7251 104.602 51.1409C107.403 51.4432 111.461 51.4098 114.914 50.4553C118.495 49.4654 121.318 47.5215 121.57 44.0403C121.689 42.3911 119.962 38.5186 112.03 38.5608H112.016L112.003 38.5598C111.319 38.4909 110.445 37.6945 110.492 36.4163C110.518 35.6945 110.593 34.9069 110.99 34.2669C111.399 33.6064 112.119 33.1485 113.324 33.011C114.718 32.852 117.57 32.3759 120.027 31.1936C122.489 30.0087 124.471 28.1608 124.326 25.2815C124.25 23.777 123.668 22.6531 122.783 21.803C121.892 20.9468 120.683 20.3585 119.347 19.9583C116.673 19.1568 113.569 19.1292 111.711 19.1292C108.029 19.1292 100.888 19.9782 94.9107 24.6253C94.2145 25.1665 93.3612 25.882 92.5435 26.1946C92.127 26.3538 91.6875 26.423 91.2633 26.2893C90.8342 26.154 90.4675 25.8265 90.1705 25.2913C89.805 24.6324 89.4095 23.0988 90.2838 21.7083L90.398 21.5354C91.7376 19.5808 98.0063 12.8323 114.418 13.0423Z" fill="#0E0807"/>
<path d="M50.5015 9.11452C51.3449 8.95043 52.381 8.94758 53.482 9.15358C61.8008 10.7102 67.938 14.3245 71.9429 19.7268C75.5995 24.6596 76.3177 31.1488 74.6871 37.3665C73.0562 43.5847 69.072 49.5513 63.2965 53.4553C60.767 55.165 58.8183 56.1258 57.3814 56.5403C55.9603 56.9501 54.9711 56.8421 54.4478 56.2991C53.9214 55.7522 53.9595 54.8645 54.3424 53.9485C54.7313 53.0182 55.5 51.9871 56.564 51.0696C60.7544 47.4566 64.799 43.6489 66.2017 38.0842C66.8214 35.6255 66.6652 33.4628 66.0933 31.9837C65.5155 30.4895 64.5559 29.7662 63.5865 29.968C62.6276 30.1684 61.8236 30.9776 61.0992 32.1126C60.3782 33.2424 59.7639 34.6495 59.1617 35.9837C58.5652 37.3052 57.9748 38.5674 57.3082 39.3616C56.9736 39.7601 56.6035 40.061 56.1841 40.1819C55.7558 40.3051 55.3041 40.2327 54.8326 39.9446C54.1783 39.5444 53.9244 38.7035 53.8922 37.6965C53.8596 36.6772 54.0508 35.4176 54.3599 34.0842C54.9789 31.4148 56.0838 28.398 56.8882 26.302C57.7949 23.9399 58.3117 21.6081 57.7076 19.4739C57.1064 17.351 55.38 15.3748 51.689 13.7542C50.2187 13.1087 49.2883 12.4567 48.8052 11.8391C48.5623 11.5284 48.4258 11.2172 48.4 10.9143C48.374 10.6084 48.4624 10.3269 48.6392 10.0833C48.9861 9.60587 49.6665 9.27715 50.5015 9.11452Z" fill="#0E0807"/>
<path fill-rule="evenodd" clip-rule="evenodd" d="M139.826 12.3382C141.665 10.1275 143.847 8.82826 146.359 9.16334L146.544 9.19069C146.604 9.20034 146.663 9.21086 146.722 9.22194C146.739 9.22513 146.756 9.2284 146.773 9.2317C146.815 9.23998 146.857 9.24809 146.899 9.25709C146.908 9.25909 146.917 9.26191 146.926 9.26393C147.031 9.28718 147.134 9.31224 147.235 9.3401C147.259 9.3467 147.283 9.35376 147.306 9.36061C147.338 9.36971 147.369 9.37939 147.4 9.38893C147.42 9.39515 147.44 9.40205 147.461 9.40846C147.494 9.41934 147.529 9.43024 147.562 9.44167C147.587 9.45019 147.613 9.45921 147.637 9.46803C147.662 9.47677 147.686 9.48536 147.711 9.4944C147.742 9.50624 147.774 9.51819 147.805 9.53053C147.825 9.53822 147.844 9.54609 147.864 9.55397C147.894 9.56639 147.925 9.57916 147.955 9.59206C147.975 9.60075 147.995 9.60951 148.015 9.61842C148.04 9.62931 148.064 9.64042 148.088 9.65163C148.113 9.66317 148.139 9.67491 148.164 9.68678L148.283 9.74635C148.289 9.74954 148.295 9.75291 148.301 9.75612C148.327 9.76967 148.354 9.78319 148.379 9.79713C148.402 9.80922 148.424 9.82187 148.446 9.83424C148.466 9.84543 148.486 9.85701 148.505 9.86842C148.534 9.8849 148.562 9.90127 148.59 9.91823C148.605 9.92726 148.621 9.93641 148.635 9.94557C148.665 9.9641 148.695 9.98313 148.724 10.0022C148.737 10.0105 148.75 10.0192 148.762 10.0276C148.795 10.0495 148.828 10.0714 148.861 10.094C148.869 10.0997 148.878 10.1058 148.886 10.1116C148.918 10.1339 148.949 10.1569 148.98 10.1799C148.993 10.1898 149.007 10.2002 149.02 10.2102C149.047 10.2305 149.074 10.2509 149.1 10.2717C149.114 10.2825 149.128 10.2931 149.141 10.304C149.169 10.3265 149.196 10.3502 149.223 10.3733C149.234 10.3822 149.245 10.3907 149.255 10.3997C149.287 10.4265 149.318 10.4542 149.348 10.4817C149.355 10.4876 149.361 10.4934 149.368 10.4993C149.399 10.5278 149.43 10.5569 149.461 10.5862C149.467 10.5921 149.473 10.5979 149.479 10.6038C149.506 10.6302 149.532 10.6578 149.559 10.6848C149.572 10.6978 149.586 10.7107 149.598 10.7239C149.62 10.7464 149.641 10.7693 149.663 10.7923C149.674 10.8045 149.686 10.817 149.697 10.8294C149.725 10.8603 149.753 10.8915 149.781 10.9231C149.786 10.9294 149.792 10.9354 149.797 10.9417C150.067 11.2543 150.302 11.6013 150.504 11.9778C150.858 12.6339 151.113 13.3774 151.285 14.1839C151.297 14.2414 151.308 14.2995 151.32 14.3577C151.377 14.6488 151.424 14.9476 151.461 15.2532C151.549 15.9868 151.581 16.7596 151.568 17.5549C151.496 21.7991 150.106 26.8189 148.691 30.4895C145.46 38.8701 140.709 44.4751 138.708 46.3635C138.824 47.1128 139.095 48.1585 139.608 49.0237C140.15 49.9381 140.936 50.612 142.078 50.5882C143.026 50.5682 143.894 50.1745 144.602 49.6741C144.687 49.6139 144.77 49.5519 144.85 49.4895C145.109 49.2875 145.338 49.0757 145.534 48.8743C145.658 48.7462 145.77 48.6221 145.866 48.5061C145.945 48.4103 146.015 48.3204 146.074 48.2385C145.993 47.7835 145.942 47.3399 145.917 46.9182C145.901 46.6652 145.896 46.4199 145.9 46.1848C145.936 43.9675 146.578 40.6253 148.396 37.7923C150.222 34.9468 153.236 32.6179 157.977 32.469C159.983 32.4061 161.526 32.8491 162.709 33.5852C163.89 34.3206 164.693 35.3381 165.237 36.3977C165.364 36.6453 165.477 36.8958 165.578 37.1458C165.595 37.19 165.612 37.2344 165.629 37.2786C165.674 37.395 165.717 37.5114 165.756 37.6272C165.775 37.6823 165.793 37.7374 165.811 37.7923C165.829 37.8485 165.848 37.9043 165.865 37.9602C165.894 38.0561 165.922 38.1517 165.948 38.2464C166.075 38.7094 166.164 39.1563 166.227 39.5657C166.259 39.7712 166.283 39.9673 166.302 40.1516C166.32 40.3174 166.332 40.4737 166.341 40.6184C166.352 40.7894 166.359 40.9444 166.362 41.0803C167.338 40.6187 168.228 39.9548 168.872 39.3645C169.016 39.2325 169.148 39.1043 169.265 38.9827C169.853 37.6676 171.16 35.9766 172.926 34.6467C174.716 33.2993 177.003 32.3017 179.522 32.4632C183.328 32.7072 185.493 34.2088 186.696 36.052C187.782 37.7161 188.062 39.6258 188.113 41.0471C188.341 40.9385 188.566 40.8184 188.783 40.6907C189.144 40.4779 189.486 40.2447 189.79 40.01C190.004 39.8447 190.196 39.6811 190.363 39.5266C190.474 39.4237 190.573 39.3247 190.66 39.2317C190.789 39.0923 190.891 38.9662 190.959 38.8606C191.052 38.6555 191.116 38.3925 191.211 37.9475C191.307 37.5005 191.431 36.8938 191.652 36.0383C191.993 34.7186 192.285 33.7552 192.982 33.1126C193.683 32.4657 194.747 32.1829 196.501 32.0491C196.636 32.0387 196.765 32.0325 196.888 32.0315C197.135 32.0295 197.357 32.0464 197.555 32.0803C197.787 32.1199 197.987 32.1832 198.159 32.2688C198.563 32.4706 198.788 32.7858 198.886 33.1448C198.91 33.2314 198.925 33.3203 198.935 33.4094C198.945 33.4986 198.948 33.5893 198.947 33.679C198.944 33.8583 198.921 34.0367 198.888 34.2053C198.823 34.5453 198.714 34.8715 198.626 35.1262C197.753 37.633 197.112 40.9359 196.758 43.1917C199.153 38.3651 201.342 35.7702 203.212 34.3508C205.286 32.7777 206.951 32.6652 207.989 32.5315C208.471 32.4693 208.911 32.5016 209.301 32.6096C209.344 32.6214 209.386 32.6342 209.427 32.6477C209.575 32.696 209.715 32.7561 209.848 32.8255C209.894 32.8494 209.939 32.8753 209.983 32.9016C210.205 33.0341 210.405 33.1945 210.58 33.3792C211.17 34.0026 211.468 34.8725 211.468 35.7317L211.465 35.8674C211.436 36.5954 211.195 38.0371 210.907 39.5462C210.748 40.3751 210.574 41.2344 210.408 42.0237C211.917 39.2028 213.452 36.982 215.067 35.4007C217.018 33.4903 219.096 32.501 221.383 32.5286C222.551 32.5428 223.362 32.9629 223.885 33.6389C224.399 34.3023 224.612 35.18 224.667 36.0696C224.776 37.848 224.259 39.8083 224.019 40.6135C223.783 41.4057 223.152 43.8338 222.849 46.1243C222.698 47.2721 222.632 48.3667 222.732 49.1985C222.782 49.6147 222.872 49.9462 223 50.1819C223.124 50.4122 223.277 50.5368 223.458 50.5813L223.604 50.6126C224.334 50.7462 225.037 50.538 225.639 50.1946C225.677 50.173 225.715 50.1507 225.752 50.1282C225.826 50.083 225.898 50.0357 225.967 49.9876C226.037 49.9395 226.105 49.8902 226.17 49.8401C226.529 49.5647 226.817 49.2668 227.005 49.0296C227.004 49.0255 227.003 49.021 227.002 49.0169C226.784 48.4007 226.542 47.3228 226.575 45.4954C226.602 43.9648 227.097 40.8391 228.747 38.0178C230.403 35.1846 233.232 32.6515 237.903 32.3684C238.108 32.356 238.31 32.3509 238.507 32.3548C238.646 32.3574 238.783 32.3649 238.918 32.3753C239.033 32.3841 239.146 32.3961 239.258 32.4104C239.275 32.4125 239.291 32.4141 239.307 32.4163C239.407 32.4298 239.505 32.4454 239.602 32.4632C239.679 32.4771 239.755 32.4925 239.83 32.509C239.889 32.5221 239.948 32.5354 240.006 32.5501C240.124 32.5795 240.239 32.6121 240.352 32.6477C240.409 32.6655 240.465 32.6841 240.521 32.7034C240.855 32.8193 241.17 32.963 241.467 33.1301C241.863 33.3531 242.226 33.6194 242.552 33.9221C242.634 33.9977 242.713 34.0755 242.79 34.1555C242.867 34.2357 242.942 34.3181 243.014 34.4026C243.158 34.5709 243.293 34.7474 243.419 34.9309C243.499 35.0488 243.575 35.1706 243.647 35.2942C244.026 35.9428 244.294 36.6664 244.441 37.4329C244.469 37.581 244.494 37.731 244.513 37.8821C244.551 38.1801 244.572 38.4836 244.574 38.7903C244.576 39.0401 244.566 39.2927 244.544 39.5462C244.47 40.3744 244.271 41.1775 243.958 41.9436C243.928 42.0168 243.897 42.0899 243.865 42.1624C242.442 45.3792 238.952 47.9165 234.027 48.9075C234.447 49.9733 235.726 51.5325 238.29 51.5325C241.504 51.5324 243.396 49.7495 245.512 47.3518C245.651 47.1742 245.893 46.95 246.176 46.7727C246.447 46.6037 246.79 46.455 247.142 46.4592C247.166 46.4595 247.19 46.4605 247.213 46.4622C247.329 46.4705 247.443 46.4907 247.552 46.5217C247.589 46.5321 247.625 46.5439 247.661 46.5569C247.687 46.5665 247.713 46.5771 247.739 46.5882C247.969 46.6865 248.176 46.8418 248.344 47.0579C248.629 47.4248 248.785 47.9427 248.785 48.5969C248.785 48.674 248.782 48.7518 248.776 48.8294C248.774 48.8563 248.772 48.8834 248.769 48.9104C248.766 48.9419 248.762 48.9735 248.758 49.0051C248.757 49.0164 248.755 49.028 248.753 49.0393C248.749 49.074 248.744 49.109 248.738 49.1438C248.735 49.1598 248.732 49.1757 248.729 49.1917C248.724 49.2213 248.718 49.2518 248.711 49.2815C248.707 49.3045 248.701 49.3278 248.696 49.3508C248.691 49.3707 248.686 49.3905 248.681 49.4104C248.675 49.4367 248.668 49.4631 248.661 49.4895C248.655 49.5111 248.649 49.5333 248.642 49.5549C248.637 49.5738 248.63 49.5927 248.625 49.6116C248.615 49.6415 248.605 49.6714 248.595 49.7014C248.589 49.7201 248.582 49.7393 248.576 49.7581C248.566 49.7841 248.556 49.8101 248.546 49.8362C248.539 49.8565 248.531 49.8774 248.523 49.8977C248.512 49.9251 248.5 49.9523 248.489 49.9798C248.478 50.0042 248.468 50.0295 248.457 50.054C248.448 50.0725 248.44 50.0911 248.431 50.1096C248.42 50.1337 248.409 50.1578 248.397 50.1819C248.383 50.2107 248.369 50.2399 248.354 50.2688C248.346 50.2845 248.338 50.3009 248.33 50.3167C248.313 50.3488 248.296 50.3811 248.278 50.4133C248.268 50.4322 248.256 50.4511 248.246 50.47C248.231 50.4966 248.216 50.5234 248.2 50.5501C248.184 50.5763 248.168 50.6028 248.152 50.6292C248.142 50.6447 248.132 50.6604 248.123 50.676C248.098 50.7154 248.073 50.7556 248.046 50.7952C248.041 50.803 248.036 50.8108 248.031 50.8186C248.006 50.8562 247.98 50.8941 247.954 50.9319C247.944 50.9459 247.934 50.9599 247.924 50.9739C247.901 51.0062 247.878 51.0391 247.854 51.0715C247.84 51.0905 247.825 51.1092 247.811 51.1282C247.787 51.16 247.763 51.1929 247.738 51.2249C247.73 51.2349 247.722 51.2451 247.714 51.2551C247.686 51.2914 247.656 51.3281 247.627 51.3645C247.612 51.3829 247.597 51.4017 247.582 51.4202C247.556 51.4508 247.53 51.4812 247.503 51.512C247.486 51.5329 247.467 51.5535 247.449 51.5745C247.421 51.6067 247.393 51.6398 247.364 51.6721C247.348 51.6897 247.332 51.7073 247.316 51.7249C247.287 51.7566 247.258 51.7887 247.228 51.8206C247.209 51.841 247.189 51.8607 247.169 51.8811C247.14 51.9119 247.111 51.943 247.081 51.9739C247.069 51.9853 247.059 51.9976 247.047 52.009C246.909 52.1503 246.761 52.2928 246.604 52.4368C246.577 52.4615 246.549 52.4862 246.522 52.511C246.491 52.539 246.46 52.5669 246.428 52.595C246.424 52.5987 246.42 52.6029 246.416 52.6067C246.122 52.8667 245.8 53.1318 245.447 53.4016C244.453 54.161 243.444 54.7995 242.149 55.2688C240.856 55.7375 239.29 56.0333 237.188 56.1243C235.621 56.192 232.997 55.9242 230.739 54.3557C230.554 54.2277 230.373 54.0905 230.194 53.9446C230.015 53.7987 229.84 53.6435 229.669 53.4788C229.368 53.1904 229.08 52.8724 228.808 52.5217C227.47 54.1232 225.075 55.9138 221.719 56.178C221.553 56.1911 221.39 56.1973 221.231 56.1975C219.696 56.1992 218.523 55.6057 217.677 54.5735C216.756 53.4492 216.244 51.8285 216.029 49.9632C215.925 49.0611 216.033 47.993 216.217 46.9143C216.402 45.8335 216.669 44.7163 216.891 43.721C217.116 42.7144 217.293 41.8444 217.313 41.2249C217.323 40.9122 217.291 40.7005 217.233 40.5745C217.206 40.5162 217.176 40.4845 217.15 40.4661C217.124 40.4483 217.086 40.4317 217.023 40.429C216.848 40.4217 216.607 40.5158 216.299 40.7659C215.998 41.0107 215.668 41.3773 215.319 41.8401C214.622 42.7646 213.881 44.0378 213.188 45.3958C211.799 48.1182 210.634 51.1181 210.403 52.2298C210.019 54.0775 209.401 55.0174 208.773 55.4856C208.738 55.5115 208.703 55.536 208.669 55.5589C208.656 55.5669 208.644 55.5746 208.632 55.5823C208.606 55.5989 208.58 55.6142 208.554 55.6292C208.545 55.6343 208.537 55.6399 208.528 55.6448C208.458 55.6838 208.39 55.7168 208.323 55.7454C208.311 55.7503 208.299 55.7554 208.288 55.76C208.265 55.7693 208.242 55.7782 208.219 55.7864C208.21 55.7899 208.2 55.7938 208.19 55.7971C208.126 55.8194 208.063 55.8372 208.003 55.8518C207.991 55.8548 207.978 55.8579 207.966 55.8606C207.955 55.8632 207.943 55.8661 207.932 55.8684C207.845 55.8864 207.764 55.897 207.69 55.9036C207.643 55.9078 207.599 55.911 207.558 55.9124H207.334C207.123 55.9124 206.038 55.9642 205.043 55.2161C204.03 54.4554 203.18 52.9263 203.305 49.9212C203.412 47.3716 203.785 44.9695 203.996 43.2219C204.102 42.3401 204.165 41.6391 204.14 41.1575C204.128 40.9143 204.093 40.7562 204.049 40.6653C204.013 40.5893 203.99 40.591 203.976 40.5901C203.782 40.5764 203.535 40.6609 203.232 40.888C202.932 41.1127 202.605 41.4559 202.26 41.9016C201.572 42.7921 200.843 44.0524 200.137 45.4739C198.727 48.3152 197.434 51.7568 196.776 54.0637C196.531 54.9211 195.934 55.4266 195.331 55.7122C194.733 55.9952 194.112 56.0725 193.764 56.0725C192.82 56.1076 192.08 55.7492 191.516 55.135C191.473 55.0878 191.431 55.0388 191.389 54.9885C191.307 54.8881 191.228 54.7817 191.154 54.6702C190.565 53.7889 190.221 52.5719 190.037 51.2483C189.703 48.8553 189.879 46.02 190.171 43.9231C190.006 44.0212 189.813 44.1233 189.6 44.2239C189.097 44.4616 188.47 44.6985 187.811 44.8723C187.627 45.8663 187.335 47.0501 186.888 48.2717C186.421 49.5507 185.782 50.8713 184.918 52.0579C183.171 54.4548 180.498 56.3065 176.475 56.1663C174.293 56.0901 172.596 55.5306 171.294 54.6585C170.481 54.1134 169.827 53.4502 169.308 52.7161C168.997 52.2756 168.733 51.8097 168.512 51.3284C168.248 50.7527 168.045 50.1541 167.893 49.5501C167.85 49.3769 167.81 49.2033 167.775 49.0296C167.439 47.3856 167.459 45.7337 167.641 44.4075C167.232 44.6251 166.7 44.8056 166.099 44.9231C165.792 47.03 165.094 49.7368 163.468 51.97C161.783 54.2848 159.114 56.0733 154.917 56.1721C153.698 56.2008 152.624 56.0177 151.682 55.678C151.538 55.6258 151.396 55.5714 151.257 55.512C150.538 55.203 149.901 54.7986 149.342 54.3264C148.721 53.8018 148.195 53.1935 147.756 52.5383C147.314 53.0993 146.84 53.5749 146.349 53.9788C146.305 54.0154 146.26 54.0517 146.215 54.0872C146.081 54.1938 145.945 54.2956 145.809 54.3919C145.582 54.5524 145.352 54.6986 145.123 54.8323C144.939 54.9392 144.755 55.038 144.572 55.1292C142.737 56.041 140.952 56.1945 140.016 56.1946C137.44 56.1945 135.298 55.1422 133.815 52.7796C132.345 50.4367 131.535 46.8264 131.535 41.7268C131.535 36.6167 132.786 28.1934 135.234 21.2014C136.458 17.7067 137.988 14.548 139.826 12.3382ZM157.426 37.3518C157.39 37.3573 157.353 37.3639 157.317 37.3714C157.244 37.3862 157.171 37.4044 157.098 37.427C156.771 37.5286 156.445 37.7085 156.124 37.9602C156.016 38.0444 155.909 38.1364 155.804 38.2356C155.734 38.3017 155.665 38.3712 155.596 38.4436C155.527 38.516 155.46 38.5917 155.392 38.6702C155.089 39.0237 154.8 39.4379 154.533 39.9007C153.88 41.032 153.367 42.4347 153.083 43.9075C153.044 44.1083 153.009 44.311 152.979 44.5139C152.959 44.6491 152.94 44.7845 152.924 44.9202C152.884 45.2598 152.857 45.6009 152.843 45.9407C152.841 46.0101 152.838 46.079 152.836 46.1467C152.833 46.282 152.833 46.4138 152.835 46.5423C152.846 47.7005 153.035 48.5881 153.312 49.2649C153.343 49.34 153.375 49.4126 153.408 49.4827C153.556 49.7979 153.723 50.0626 153.899 50.2835C154.017 50.4313 154.14 50.5603 154.264 50.6731C154.43 50.8234 154.598 50.9447 154.762 51.0413C154.831 51.0814 154.899 51.1167 154.965 51.1487C155.258 51.2898 155.528 51.3561 155.731 51.3753C156.273 51.4263 156.913 51.2473 157.558 50.8508C157.666 50.7848 157.773 50.7121 157.88 50.634C158.274 50.3476 158.664 49.9805 159.029 49.5364C159.125 49.4196 159.219 49.2979 159.31 49.1712C159.371 49.0865 159.431 48.9993 159.49 48.9104C160.282 47.7102 160.853 46.1211 160.914 44.2493C159.233 43.4043 158.516 42.073 158.309 40.7776C158.209 40.1512 158.229 39.5338 158.313 38.9837C158.348 38.7568 158.393 38.5411 158.446 38.3411C158.459 38.292 158.472 38.2437 158.486 38.1965C158.541 38.0063 158.604 37.8322 158.668 37.678C158.421 37.4914 158.181 37.3825 157.956 37.346C157.924 37.3408 157.892 37.3365 157.861 37.3342C157.789 37.3291 157.716 37.3274 157.643 37.3303C157.571 37.3333 157.499 37.341 157.426 37.3518ZM179.391 37.3342C178.814 37.2931 178.226 37.5124 177.654 37.9602C177.081 38.4089 176.538 39.078 176.063 39.9007C175.766 40.4149 175.499 40.9856 175.268 41.593C175.222 41.7143 175.177 41.8371 175.134 41.9612C175.048 42.2097 174.968 42.464 174.895 42.7219C174.859 42.8509 174.823 42.9817 174.79 43.1126C174.723 43.3744 174.665 43.6398 174.613 43.9075C174.574 44.1083 174.539 44.311 174.509 44.5139C174.489 44.6491 174.471 44.7845 174.455 44.9202C174.415 45.2598 174.387 45.6009 174.374 45.9407C174.371 46.0101 174.368 46.079 174.367 46.1467C174.364 46.282 174.363 46.4138 174.365 46.5423C174.377 47.7005 174.565 48.5881 174.842 49.2649C174.873 49.34 174.905 49.4126 174.938 49.4827C175.086 49.7979 175.253 50.0626 175.429 50.2835C175.547 50.4313 175.67 50.5603 175.794 50.6731C175.96 50.8234 176.128 50.9447 176.293 51.0413C176.361 51.0814 176.429 51.1167 176.496 51.1487C176.789 51.2898 177.058 51.3561 177.261 51.3753C177.501 51.3978 177.76 51.3753 178.03 51.3089C178.097 51.2923 178.165 51.2732 178.234 51.2512C178.509 51.1629 178.794 51.0304 179.08 50.8557C179.151 50.8121 179.222 50.7659 179.294 50.7171C179.329 50.6927 179.364 50.6675 179.4 50.6419C179.542 50.5387 179.685 50.4251 179.826 50.301C180.072 50.0839 180.313 49.8349 180.544 49.5549C181.566 48.3186 182.357 46.5128 182.442 44.3118C181.345 43.7357 180.749 42.9439 180.406 42.1624C180.286 41.8888 180.196 41.6163 180.128 41.3548C180.107 41.2772 180.089 41.2006 180.072 41.1253C180.038 40.9745 180.011 40.8279 179.987 40.6887C179.803 39.6147 180.103 38.4868 180.367 37.8176C180.324 37.7796 180.282 37.7437 180.24 37.7102C179.945 37.4761 179.656 37.3533 179.391 37.3342ZM237.896 37.2288C237.207 37.1693 236.564 37.4478 235.976 37.9739C235.386 38.5021 234.868 39.2681 234.447 40.1399C233.823 41.4298 233.431 42.9096 233.318 44.1087C233.291 44.3964 233.279 44.6683 233.285 44.9173C237.192 43.449 238.807 41.5286 239.22 40.0081C239.28 39.7878 239.314 39.576 239.328 39.3753C239.414 38.1351 238.687 37.2974 237.896 37.2288ZM145.302 14.22C144.962 14.2458 144.588 14.4672 144.185 14.9309C143.759 15.4215 143.333 16.1459 142.917 17.0647C142.085 18.9004 141.316 21.455 140.652 24.3079C140.536 24.8058 140.423 25.3125 140.314 25.8255C140.205 26.3386 140.099 26.8584 139.997 27.3821C139.725 28.7783 139.479 30.2042 139.263 31.6155C138.778 34.7906 138.445 37.894 138.309 40.4319C145.217 29.6687 146.225 20.3938 146.43 17.2962C146.513 16.0479 146.313 15.2626 146.057 14.801C145.798 14.3328 145.499 14.2172 145.37 14.2171L145.302 14.22Z" fill="#0E0807"/>
<path d="M25.4761 35.8577C26.5127 35.7938 27.6329 36.0471 28.6324 36.5149C29.6314 36.9827 30.5258 37.6721 31.1021 38.4934C31.68 39.3175 31.9435 40.2845 31.6549 41.2854C30.7631 44.3763 27.2561 45.6222 24.5113 44.3743C21.7274 43.108 20.7276 39.6848 22.8052 37.1253C23.4701 36.3063 24.4377 35.9219 25.4761 35.8577Z" fill="#0E0807"/>
<path d="M38.1812 7.9153C40.0153 7.76823 41.6166 7.85781 42.8414 8.15651C44.0539 8.45238 44.9498 8.96636 45.2886 9.7112C45.497 10.1699 45.478 10.5741 45.2369 10.9124C45.0095 11.2311 44.6043 11.4624 44.1168 11.6467C43.139 12.0163 41.6778 12.2531 40.1588 12.553C38.625 12.8558 37.0126 13.2256 35.6822 13.8587C34.3537 14.491 33.3308 15.3734 32.9341 16.6887C32.7308 17.3636 32.8665 18.0111 33.2281 18.6565C33.5925 19.3067 34.1803 19.9439 34.8599 20.5842C35.1988 20.9035 35.5578 21.2216 35.9195 21.5403C36.2804 21.8583 36.6452 22.1784 36.9918 22.4993C37.6831 23.1394 38.3189 23.7971 38.731 24.4817C40.0219 26.6264 40.0061 28.2906 39.1968 29.1546C38.381 30.0244 36.8945 29.9474 35.5533 28.8938C34.9799 28.4433 34.3994 27.9428 33.8267 27.468C33.251 26.9908 32.678 26.5355 32.108 26.1624C30.9618 25.4123 29.8675 25.0228 28.8033 25.3987C28.5598 25.4849 28.3164 25.6754 28.0718 25.9632C27.8283 26.2499 27.5929 26.6217 27.3599 27.051C26.8917 27.9142 26.4528 28.9739 25.982 29.9983C25.5165 31.0111 25.0182 31.9909 24.44 32.6497C24.1497 32.9803 23.8294 33.2423 23.4713 33.3821C23.1079 33.5237 22.7159 33.5354 22.3004 33.387C21.8512 33.2263 21.5327 32.9651 21.3287 32.6243C21.127 32.287 21.0454 31.8852 21.0396 31.4563C21.0283 30.6044 21.3161 29.5856 21.6422 28.596C21.9732 27.5914 22.3436 26.6172 22.5299 25.8079C22.6226 25.4049 22.6645 25.0606 22.6382 24.7883C22.6123 24.5199 22.5222 24.3421 22.3697 24.2327C22.086 24.0298 21.7901 23.9825 21.4625 24.0715C21.1237 24.1639 20.7418 24.4046 20.314 24.7971C19.4582 25.5826 18.475 26.9198 17.3336 28.6516C16.5964 29.77 15.8178 30.4957 15.0953 30.8518C14.3707 31.2087 13.6774 31.2012 13.1666 30.802C12.665 30.4097 12.3957 29.6817 12.4097 28.7239C12.4239 27.761 12.7233 26.5337 13.3961 25.0911C15.9965 19.5153 19.9975 14.8867 25.3687 11.9329C29.8717 9.45667 34.5108 8.20974 38.1812 7.9153Z" fill="#0E0807"/>
<path d="M68.4605 4.60963C69.956 4.69072 71.4362 5.3886 72.2496 6.69069C73.026 7.93435 73.1563 9.81492 72.7242 11.3118C72.5073 12.063 72.1436 12.738 71.6275 13.1917C71.1052 13.6506 70.4339 13.8752 69.6373 13.7307C67.9058 13.4162 66.0739 12.2732 64.941 10.8645C63.8103 9.45825 63.3313 7.71697 64.4693 6.26979C65.4185 5.06299 66.9649 4.52878 68.4605 4.60963Z" fill="#0E0807"/>
<path d="M22.0172 3.16432C23.3202 2.66412 24.9327 2.68603 26.192 3.2737C27.4636 3.86766 28.3791 5.04369 28.2359 6.81471C28.0923 8.58751 26.4466 10.0876 24.6578 10.7864C23.7564 11.1384 22.7945 11.2981 21.9332 11.1829C21.0687 11.067 20.2962 10.6717 19.8033 9.91334C18.2878 7.57995 19.4099 4.1658 22.0172 3.16432Z" fill="#0E0807"/>
</svg>
