<svg width="455" height="140" viewBox="0 0 455 140" fill="none" xmlns="http://www.w3.org/2000/svg">
<path d="M70.6824 11.2077C94.6825 11.5126 107.268 18.2996 113.817 25.7457C115.655 27.8356 117.008 29.9664 118.001 32.0026C118.221 32.455 118.425 32.9027 118.611 33.3444C120.57 37.982 120.724 41.9417 120.672 43.5065C120.594 45.8226 120.323 52.0089 116.162 58.6383C112.263 64.8509 105.002 71.3677 91.5047 75.5045C95.1931 76.4924 99.6816 78.35 103.597 81.3366C108.673 85.2075 112.819 91.0012 112.945 99.2262C113.102 109.496 107.053 119.235 94.8768 125.814C82.8413 132.317 64.7888 135.759 40.6141 133.693C40.4986 134.941 40.2125 136.295 39.2996 137.374C38.161 138.719 36.2191 139.462 33.0789 139.39C29.6944 139.313 26.3974 138.737 23.9608 137.296C22.732 136.568 21.7078 135.612 21.0154 134.38C20.3218 133.144 19.9856 131.674 20.0672 129.96C20.3741 123.517 25.0835 90.6006 37.6531 44.5495C37.9166 42.2821 39.9769 37.8967 46.0311 37.1237C49.6054 36.6674 53.4384 36.4972 56.2176 37.1969C57.6075 37.5469 58.845 38.1415 59.617 39.1364C60.4186 40.1697 60.6168 41.5003 60.1922 43.0719C58.6939 48.6156 47.5469 92.6108 42.6258 119.334C50.6307 120.192 62.2311 120.099 72.1014 117.39C82.3379 114.581 90.4074 109.063 91.1287 99.1833C91.4699 94.5031 86.5318 83.5126 63.8582 83.6325H63.8182L63.7791 83.6286C61.824 83.433 59.3266 81.1721 59.4608 77.5436C59.5367 75.4952 59.7513 73.2625 60.8846 71.4459C62.0546 69.5708 64.1118 68.2697 67.5574 67.8795C71.5414 67.4284 79.6938 66.0768 86.7176 62.7213C93.7566 59.3585 99.4222 54.115 99.0067 45.943C98.7893 41.673 97.1251 38.4827 94.5955 36.07C92.0479 33.64 88.5921 31.9716 84.7742 30.8356C77.1289 28.5608 68.2566 28.4811 62.9451 28.4811C52.4226 28.4811 32.0097 30.8916 14.9237 44.0807C12.9335 45.617 10.4954 47.6485 8.15803 48.5358C6.96706 48.9878 5.71067 49.182 4.49787 48.8024C3.27151 48.4184 2.22374 47.4904 1.37482 45.9713C0.330156 44.1016 -0.800195 39.7501 1.69904 35.8034L2.02619 35.3102C5.85525 29.7629 23.7719 10.6117 70.6824 11.2077Z" fill="#0E0807"/>
<path fill-rule="evenodd" clip-rule="evenodd" d="M143.312 9.20766C148.569 2.9335 154.806 -0.752128 161.985 0.198873L162.514 0.276021C162.686 0.30341 162.856 0.332478 163.024 0.363912C163.073 0.372966 163.121 0.383822 163.169 0.393209C163.289 0.416728 163.409 0.439876 163.528 0.465474C163.555 0.471186 163.581 0.478214 163.607 0.484029C163.907 0.550068 164.202 0.621664 164.49 0.700826C164.559 0.71962 164.626 0.739897 164.694 0.75942C164.784 0.785338 164.874 0.811326 164.963 0.838521C165.021 0.856246 165.078 0.874944 165.136 0.893209C165.233 0.924117 165.33 0.954515 165.426 0.986959C165.497 1.01116 165.568 1.0371 165.638 1.06215C165.709 1.08714 165.78 1.11152 165.849 1.13735C165.94 1.17097 166.03 1.20583 166.12 1.24086C166.176 1.26268 166.232 1.28393 166.287 1.30629C166.374 1.34164 166.461 1.37898 166.547 1.41567C166.605 1.44041 166.663 1.46454 166.721 1.48989C166.791 1.52092 166.861 1.55267 166.93 1.58461C167.002 1.61737 167.073 1.65052 167.143 1.68422C167.166 1.69522 167.19 1.70535 167.213 1.71645L167.484 1.85219C167.502 1.86139 167.52 1.87125 167.538 1.88051C167.613 1.91902 167.687 1.9581 167.761 1.9977C167.825 2.03216 167.889 2.06691 167.952 2.10219C168.009 2.13394 168.065 2.16646 168.122 2.19887C168.203 2.2457 168.285 2.29227 168.365 2.34047C168.408 2.3661 168.45 2.39259 168.492 2.4186C168.578 2.47128 168.663 2.5245 168.747 2.57876C168.783 2.60221 168.819 2.6263 168.855 2.65004C168.951 2.71268 169.045 2.77582 169.138 2.84047C169.162 2.85673 169.185 2.87292 169.209 2.8893C169.3 2.95329 169.39 3.01871 169.479 3.08461C169.518 3.11281 169.556 3.14104 169.594 3.16958C169.67 3.22731 169.746 3.28621 169.821 3.34536C169.86 3.37575 169.899 3.40542 169.937 3.43618C170.017 3.50021 170.095 3.56587 170.174 3.63149C170.204 3.65689 170.234 3.68202 170.264 3.70766C170.354 3.78378 170.442 3.86091 170.529 3.93911C170.548 3.95618 170.567 3.97369 170.586 3.99086C170.675 4.07196 170.764 4.15369 170.851 4.23696C170.869 4.25364 170.887 4.26999 170.904 4.28676C170.982 4.36182 171.058 4.4385 171.135 4.51528C171.171 4.5522 171.208 4.58929 171.244 4.62661C171.306 4.69083 171.368 4.75556 171.43 4.82094C171.462 4.85573 171.495 4.89032 171.527 4.92544C171.608 5.01331 171.688 5.10213 171.766 5.19204C171.782 5.21026 171.798 5.22842 171.814 5.24672C172.584 6.13405 173.256 7.1176 173.836 8.18618C174.846 10.0482 175.574 12.1582 176.065 14.4469C176.1 14.6104 176.134 14.7748 176.167 14.9401C176.33 15.7663 176.464 16.6147 176.569 17.4821C176.823 19.5642 176.915 21.7559 176.877 24.0133C176.67 36.0592 172.697 50.3071 168.652 60.7252C159.418 84.5101 145.836 100.417 140.116 105.776C140.448 107.903 141.221 110.87 142.687 113.326C144.237 115.921 146.485 117.835 149.748 117.767C152.458 117.711 154.94 116.591 156.965 115.171C157.208 115 157.444 114.825 157.672 114.648C158.411 114.075 159.066 113.475 159.627 112.903C159.983 112.539 160.301 112.186 160.576 111.857C160.803 111.585 161.003 111.331 161.17 111.098C160.94 109.807 160.792 108.547 160.721 107.35C160.677 106.632 160.662 105.936 160.673 105.269C160.776 98.976 162.612 89.4904 167.809 81.4499C173.03 73.3742 181.642 66.7661 195.195 66.3434C200.928 66.1647 205.341 67.4211 208.721 69.5104C212.097 71.5976 214.393 74.4852 215.948 77.4928C216.311 78.1956 216.633 78.9064 216.921 79.6159C216.972 79.7413 217.022 79.8665 217.07 79.9918C217.198 80.3224 217.319 80.6524 217.432 80.9811C217.486 81.1377 217.539 81.294 217.59 81.4499C217.642 81.6095 217.692 81.7687 217.741 81.9274C217.825 82.2 217.905 82.4708 217.979 82.7399C218.343 84.054 218.598 85.3211 218.777 86.4831C218.867 87.0663 218.939 87.6229 218.994 88.1461C219.043 88.6165 219.079 89.0597 219.105 89.4704C219.137 89.9558 219.155 90.3959 219.163 90.7819C221.954 89.4717 224.496 87.587 226.337 85.9118C226.748 85.5369 227.125 85.1729 227.462 84.8278C229.142 81.0953 232.88 76.2975 237.928 72.5231C243.042 68.6989 249.58 65.8685 256.781 66.3268C267.662 67.0195 273.847 71.2808 277.286 76.5124C280.391 81.2353 281.191 86.6542 281.337 90.6881C281.989 90.3798 282.631 90.0388 283.252 89.6764C284.286 89.0722 285.262 88.41 286.131 87.7438C286.742 87.2747 287.293 86.8112 287.768 86.3727C288.086 86.0804 288.369 85.7989 288.617 85.5348C288.988 85.1387 289.277 84.7809 289.471 84.4811C289.74 83.8989 289.922 83.1535 290.195 81.8903C290.469 80.6216 290.823 78.9004 291.454 76.4723C292.428 72.7264 293.264 69.9926 295.256 68.1686C297.261 66.3328 300.3 65.5288 305.312 65.1491C305.7 65.1197 306.07 65.1041 306.422 65.1012C307.126 65.0955 307.759 65.1417 308.327 65.2379C308.989 65.3502 309.561 65.5301 310.052 65.7731C311.208 66.3459 311.851 67.242 312.131 68.2614C312.198 68.5077 312.244 68.7589 312.272 69.0124C312.3 69.2654 312.31 69.5207 312.305 69.775C312.297 70.2842 312.231 70.7901 312.138 71.2692C311.952 72.2343 311.641 73.1602 311.388 73.8834C308.893 80.9978 307.062 90.3708 306.051 96.7731C312.896 83.0748 319.15 75.7125 324.497 71.6842C330.425 67.2179 335.186 66.8987 338.152 66.5192C339.532 66.3428 340.785 66.4353 341.902 66.7418C342.024 66.7754 342.145 66.8117 342.263 66.8502C342.686 66.9873 343.086 67.1583 343.466 67.3551C343.597 67.4233 343.726 67.4942 343.852 67.569C344.487 67.9449 345.058 68.4005 345.557 68.9245C347.245 70.6939 348.097 73.1627 348.097 75.6012L348.089 75.987C348.006 78.0528 347.316 82.1434 346.492 86.4264C346.039 88.7794 345.54 91.218 345.066 93.4586C349.379 85.4526 353.768 79.1507 358.384 74.6627C363.96 69.2406 369.901 66.4337 376.439 66.5124C379.778 66.5527 382.093 67.743 383.59 69.6618C385.058 71.5445 385.666 74.036 385.822 76.5612C386.134 81.6087 384.659 87.1724 383.973 89.4577C383.299 91.706 381.492 98.5966 380.628 105.097C380.195 108.355 380.006 111.461 380.293 113.822C380.436 115.004 380.693 115.945 381.058 116.614C381.415 117.268 381.85 117.619 382.367 117.746L382.785 117.836C384.872 118.215 386.879 117.623 388.602 116.648C388.711 116.587 388.818 116.524 388.924 116.46C389.135 116.331 389.341 116.199 389.541 116.062C389.741 115.925 389.934 115.785 390.121 115.643C391.148 114.861 391.97 114.015 392.51 113.341C392.505 113.33 392.502 113.318 392.498 113.306C391.876 111.558 391.186 108.499 391.278 103.312C391.356 98.9683 392.771 90.0975 397.486 82.0905C402.221 74.0495 410.306 66.8588 423.657 66.0553C424.245 66.02 424.822 66.0073 425.388 66.0182C425.783 66.0258 426.173 66.0454 426.557 66.0749C426.887 66.1001 427.211 66.1337 427.532 66.1745C427.579 66.1804 427.625 66.1868 427.672 66.193C427.956 66.2314 428.238 66.2765 428.515 66.3268C428.734 66.3664 428.951 66.4079 429.165 66.4547C429.335 66.492 429.504 66.5311 429.672 66.5729C430.007 66.6564 430.336 66.7491 430.66 66.8502C430.822 66.9008 430.982 66.9536 431.141 67.0084C432.096 67.3376 432.999 67.7437 433.848 68.2184C434.98 68.8512 436.016 69.6064 436.948 70.4655C437.181 70.6802 437.408 70.9012 437.628 71.1286C437.848 71.3561 438.061 71.59 438.268 71.8297C438.681 72.3075 439.066 72.8079 439.424 73.3288C439.654 73.6636 439.87 74.008 440.077 74.359C441.162 76.2003 441.928 78.2544 442.348 80.4303C442.43 80.8508 442.497 81.2759 442.553 81.7047C442.662 82.5506 442.721 83.4113 442.727 84.2819C442.733 84.9911 442.704 85.7069 442.639 86.4264C442.429 88.7774 441.863 91.0564 440.967 93.2311C440.881 93.4392 440.791 93.646 440.699 93.8522C436.632 102.982 426.659 110.183 412.58 112.996C413.781 116.021 417.435 120.447 424.763 120.447C433.951 120.447 439.36 115.386 445.409 108.581C445.806 108.077 446.497 107.44 447.307 106.937C448.081 106.457 449.062 106.036 450.069 106.048C450.137 106.049 450.204 106.052 450.272 106.057C450.603 106.081 450.927 106.137 451.24 106.225C451.345 106.255 451.448 106.289 451.551 106.326C451.626 106.353 451.7 106.382 451.774 106.414C452.432 106.693 453.023 107.133 453.504 107.746C454.319 108.787 454.763 110.257 454.763 112.114C454.763 112.333 454.754 112.553 454.738 112.773C454.732 112.85 454.725 112.927 454.718 113.005C454.709 113.094 454.699 113.184 454.687 113.274C454.683 113.306 454.679 113.339 454.675 113.371C454.661 113.469 454.647 113.568 454.63 113.667C454.622 113.712 454.613 113.758 454.604 113.803C454.589 113.888 454.573 113.972 454.555 114.056C454.54 114.122 454.524 114.188 454.509 114.254C454.495 114.31 454.483 114.367 454.469 114.423C454.45 114.498 454.429 114.573 454.408 114.648C454.391 114.709 454.375 114.771 454.356 114.833C454.34 114.886 454.322 114.94 454.305 114.994C454.279 115.079 454.251 115.165 454.221 115.251C454.203 115.304 454.184 115.357 454.165 115.41C454.138 115.484 454.111 115.558 454.083 115.632C454.061 115.69 454.038 115.748 454.014 115.805C453.983 115.884 453.95 115.962 453.917 116.041C453.887 116.11 453.856 116.179 453.825 116.249C453.801 116.302 453.778 116.355 453.754 116.408C453.722 116.477 453.689 116.545 453.655 116.614C453.615 116.696 453.574 116.779 453.532 116.861C453.509 116.906 453.486 116.95 453.463 116.995C453.415 117.086 453.365 117.178 453.314 117.269C453.285 117.323 453.254 117.377 453.223 117.43C453.18 117.506 453.136 117.583 453.091 117.659C453.046 117.734 453.001 117.808 452.955 117.883C452.928 117.928 452.9 117.972 452.872 118.016C452.801 118.128 452.729 118.24 452.654 118.352C452.639 118.375 452.624 118.398 452.609 118.421C452.538 118.527 452.464 118.634 452.388 118.741C452.36 118.781 452.332 118.822 452.304 118.862C452.238 118.954 452.171 119.045 452.102 119.137C452.062 119.191 452.021 119.245 451.98 119.299C451.912 119.39 451.843 119.481 451.772 119.572C451.749 119.601 451.726 119.63 451.703 119.66C451.622 119.763 451.539 119.866 451.454 119.969C451.411 120.022 451.367 120.074 451.323 120.127C451.25 120.214 451.177 120.301 451.101 120.388C451.05 120.448 450.997 120.506 450.945 120.566C450.865 120.658 450.784 120.75 450.701 120.841C450.656 120.891 450.61 120.941 450.564 120.991C450.482 121.081 450.398 121.172 450.313 121.262C450.259 121.32 450.203 121.378 450.147 121.436C450.063 121.524 449.979 121.612 449.892 121.7C449.861 121.732 449.829 121.765 449.797 121.798C449.4 122.198 448.978 122.603 448.53 123.011C448.453 123.082 448.374 123.152 448.296 123.222C448.207 123.302 448.119 123.383 448.028 123.463C448.016 123.473 448.004 123.484 447.992 123.495C447.153 124.233 446.231 124.985 445.221 125.751C442.381 127.906 439.496 129.717 435.795 131.049C432.099 132.38 427.624 133.219 421.614 133.477C417.134 133.669 409.635 132.909 403.18 128.458C402.653 128.094 402.134 127.706 401.623 127.292C401.112 126.877 400.61 126.437 400.12 125.969C399.262 125.151 398.439 124.248 397.663 123.253C393.837 127.798 386.992 132.881 377.399 133.631C376.923 133.668 376.458 133.686 376.004 133.686C371.616 133.691 368.263 132.007 365.846 129.077C363.213 125.886 361.746 121.287 361.132 115.993C360.835 113.432 361.144 110.4 361.672 107.339C362.2 104.271 362.963 101.101 363.598 98.276C364.241 95.4194 364.745 92.9504 364.803 91.192C364.832 90.304 364.741 89.703 364.574 89.3454C364.497 89.1797 364.413 89.0899 364.338 89.0377C364.265 88.9873 364.156 88.9418 363.974 88.9342C363.475 88.9135 362.787 89.1804 361.907 89.8903C361.046 90.5851 360.1 91.6235 359.102 92.9372C357.11 95.5611 354.994 99.1759 353.013 103.03C349.044 110.757 345.711 119.271 345.051 122.425C343.953 127.671 342.186 130.338 340.391 131.667C340.292 131.74 340.193 131.808 340.095 131.873C340.06 131.896 340.025 131.917 339.99 131.939C339.915 131.986 339.841 132.031 339.767 132.074C339.742 132.088 339.717 132.103 339.692 132.117C339.493 132.228 339.296 132.323 339.104 132.404C339.071 132.418 339.038 132.432 339.005 132.445C338.939 132.472 338.873 132.497 338.808 132.52C338.781 132.53 338.754 132.54 338.726 132.549C338.543 132.613 338.364 132.664 338.192 132.706C338.157 132.714 338.122 132.721 338.088 132.729C338.055 132.737 338.022 132.744 337.989 132.751C337.74 132.802 337.508 132.833 337.297 132.851C337.162 132.863 337.035 132.872 336.919 132.876L336.279 132.877C335.681 132.877 332.576 133.026 329.728 130.901C326.835 128.742 324.405 124.403 324.764 115.874C325.069 108.638 326.136 101.82 326.737 96.86C327.041 94.3565 327.221 92.3664 327.149 90.9997C327.113 90.3092 327.015 89.8612 326.891 89.6032C326.788 89.3864 326.719 89.3919 326.68 89.3893C326.125 89.3504 325.419 89.5912 324.553 90.236C323.695 90.8739 322.762 91.848 321.777 93.1129C319.81 95.6404 317.724 99.2167 315.707 103.252C311.675 111.316 307.98 121.083 306.098 127.631C305.399 130.064 303.692 131.498 301.968 132.308C300.259 133.111 298.486 133.331 297.491 133.331C294.793 133.43 292.677 132.413 291.065 130.67C290.941 130.535 290.82 130.397 290.702 130.255C290.466 129.969 290.241 129.668 290.028 129.351C288.346 126.85 287.363 123.397 286.836 119.64C285.882 112.849 286.385 104.802 287.221 98.8502C286.749 99.1287 286.197 99.4182 285.589 99.7038C284.151 100.378 282.358 101.05 280.474 101.544C279.947 104.365 279.113 107.725 277.836 111.193C276.499 114.823 274.676 118.57 272.204 121.938C267.21 128.741 259.57 133.996 248.07 133.597C241.832 133.381 236.982 131.793 233.262 129.318C230.937 127.771 229.069 125.889 227.585 123.805C226.694 122.555 225.941 121.232 225.31 119.866C224.556 118.232 223.975 116.534 223.54 114.82C223.415 114.328 223.304 113.835 223.203 113.341C222.244 108.675 222.299 103.988 222.82 100.223C221.651 100.841 220.13 101.354 218.413 101.688C217.534 107.668 215.539 115.351 210.892 121.689C206.076 128.259 198.446 133.334 186.448 133.615C182.963 133.696 179.893 133.177 177.202 132.213C176.788 132.064 176.383 131.909 175.987 131.74C173.93 130.863 172.111 129.716 170.513 128.376C168.738 126.887 167.236 125.159 165.981 123.299C164.717 124.892 163.361 126.244 161.959 127.39C161.831 127.494 161.704 127.597 161.576 127.698C161.191 128.001 160.804 128.288 160.414 128.561C159.765 129.017 159.109 129.433 158.453 129.812C157.928 130.116 157.402 130.396 156.878 130.655C151.632 133.243 146.529 133.677 143.854 133.677C136.491 133.677 130.369 130.69 126.131 123.985C121.928 117.336 119.612 107.09 119.612 92.6168C119.612 78.1138 123.188 54.2089 130.186 34.3649C133.684 24.4454 138.058 15.4796 143.312 9.20766ZM194.242 80.1403C194.035 80.1486 193.828 80.169 193.62 80.1999C193.516 80.2153 193.412 80.2335 193.308 80.2545C193.1 80.2966 192.892 80.3495 192.684 80.4137C191.749 80.7022 190.816 81.2122 189.896 81.9274C189.589 82.1662 189.285 82.4272 188.985 82.7086C188.785 82.8961 188.587 83.093 188.39 83.2985C188.194 83.5042 187.999 83.719 187.806 83.942C186.939 84.9454 186.114 86.1199 185.35 87.4333C183.483 90.6445 182.018 94.626 181.204 98.8063C181.093 99.3763 180.994 99.9501 180.908 100.526C180.851 100.91 180.799 101.295 180.753 101.68C180.638 102.644 180.56 103.612 180.521 104.576C180.513 104.773 180.507 104.968 180.503 105.16C180.494 105.544 180.491 105.919 180.495 106.284C180.529 109.571 181.068 112.09 181.861 114.01C181.949 114.224 182.04 114.43 182.134 114.629C182.557 115.524 183.036 116.274 183.54 116.901C183.877 117.32 184.227 117.687 184.582 118.007C185.055 118.434 185.536 118.777 186.006 119.051C186.201 119.165 186.396 119.265 186.586 119.356C187.423 119.757 188.193 119.945 188.774 120C190.325 120.145 192.154 119.636 193.998 118.51C194.305 118.323 194.613 118.118 194.92 117.896C196.045 117.083 197.159 116.042 198.201 114.782C198.475 114.45 198.744 114.104 199.006 113.744C199.18 113.504 199.351 113.257 199.518 113.005C201.783 109.598 203.416 105.089 203.59 99.776C198.787 97.3778 196.735 93.6001 196.144 89.9235C195.859 88.1453 195.916 86.3941 196.156 84.8327C196.255 84.1884 196.385 83.5765 196.536 83.0084C196.573 82.869 196.612 82.7323 196.651 82.5983C196.81 82.0582 196.985 81.5633 197.168 81.1256C196.464 80.596 195.779 80.2859 195.136 80.1823C195.044 80.1675 194.952 80.1564 194.862 80.15C194.656 80.1355 194.449 80.132 194.242 80.1403ZM256.405 80.15C254.754 80.0333 253.074 80.6558 251.439 81.9274C249.802 83.2009 248.251 85.0984 246.893 87.4333C246.045 88.8929 245.279 90.5117 244.62 92.236C244.488 92.5809 244.36 92.9299 244.237 93.2829C243.991 93.9885 243.763 94.7095 243.554 95.442C243.449 95.8081 243.348 96.177 243.254 96.5485C243.064 97.2922 242.895 98.046 242.747 98.8063C242.636 99.3763 242.537 99.9501 242.451 100.526C242.394 100.91 242.342 101.295 242.296 101.68C242.181 102.644 242.103 103.612 242.064 104.576C242.056 104.773 242.05 104.968 242.046 105.16C242.037 105.544 242.034 105.919 242.038 106.284C242.072 109.571 242.611 112.09 243.404 114.01C243.492 114.224 243.583 114.43 243.677 114.629C244.099 115.524 244.579 116.274 245.083 116.901C245.42 117.32 245.77 117.687 246.125 118.007C246.598 118.434 247.079 118.777 247.549 119.051C247.744 119.165 247.939 119.265 248.129 119.356C248.966 119.757 249.736 119.945 250.317 120C251.003 120.064 251.743 120 252.515 119.811C252.708 119.764 252.903 119.71 253.099 119.647C253.886 119.396 254.699 119.022 255.515 118.526C255.719 118.402 255.923 118.27 256.127 118.131C256.229 118.062 256.331 117.991 256.432 117.918C256.84 117.625 257.246 117.302 257.648 116.95C258.351 116.334 259.041 115.627 259.702 114.833C262.622 111.323 264.884 106.199 265.127 99.9518C261.992 98.3168 260.287 96.0704 259.306 93.8522C258.963 93.0758 258.707 92.3034 258.512 91.5612C258.453 91.3408 258.401 91.1231 258.352 90.9088C258.255 90.4808 258.176 90.0665 258.108 89.6715C257.583 86.6231 258.44 83.4224 259.195 81.5231C259.074 81.415 258.953 81.3135 258.832 81.2184C257.987 80.5533 257.163 80.2038 256.405 80.15ZM423.638 79.8512C421.669 79.6823 419.83 80.472 418.15 81.9655C416.464 83.4648 414.983 85.639 413.778 88.1139C411.996 91.775 410.875 95.9743 410.553 99.3776C410.475 100.194 410.442 100.965 410.459 101.672C421.627 97.5044 426.242 92.0535 427.423 87.7379C427.594 87.1127 427.692 86.5128 427.732 85.943C427.978 82.423 425.899 80.0458 423.638 79.8512ZM158.965 14.5485C157.992 14.6219 156.924 15.25 155.772 16.5661C154.554 17.9584 153.336 20.0155 152.146 22.6237C149.769 27.8337 147.572 35.0835 145.673 43.1803C145.341 44.5937 145.019 46.0317 144.707 47.4879C144.395 48.9443 144.092 50.4188 143.801 51.9049C143.023 55.8676 142.32 59.9132 141.703 63.9186C140.315 72.9304 139.365 81.739 138.977 88.942C158.724 58.3936 161.604 32.0693 162.19 23.279C162.426 19.7362 161.854 17.5088 161.124 16.1989C160.383 14.8694 159.528 14.542 159.158 14.5416L158.965 14.5485Z" fill="#0E0807"/>
</svg>
